<?xml version="1.0" encoding="UTF-8"?>
<svg version="1.1" viewBox="0 0 1024 1024" width="1024" height="1024" xmlns="http://www.w3.org/2000/svg">
<path transform="translate(308,171)" d="m0 0h52l25 3 23 5 19 6 21 9 14 8 16 12 15 15 4 5 5-2 18-11 23-12 27-11 26-8 28-6 23-3 13-1h36l23 2 29 5 26 7 20 7 19 8 16 8 18 10 15 10 16 12 11 9 13 12 16 16 9 11 12 15 12 18 11 19 11 22 10 26 8 27 5 25 3 25v52l-4 31-6 27-11 33-11 25-12 22-16 24-11 14-12 14-24 24-11 9-17 13-15 10-21 12-25 12-28 10-22 6-25 5-27 3h-45l-27-3-26-5-24-7-20-7-20-9-25-13-24-16-13-10-14-12-16-15-10-11-3 4-42 78-15 28-14 26-3 4-9-1-25-8-20-8-23-11-20-12-17-12-11-9-14-12-19-19-9-11-14-18-12-19-10-18-10-21-3-8h-1v24l3 19 7 27v2l-5-2-14-10-13-10-10-10-11-14-10-15-12-23-8-21-6-21-4-22-2-17-1-27 1-25 3-27 5-27 4-18-10 14-11 19-11 23-13 28h-1v-16l3-41 4-24 6-24 8-24 10-23 11-21 14-21 11-14 12-13 12-12 14-11 14-10 21-12 21-9h-13l-43 4h-10l6-7 12-11 7-7 11-9 14-10 13-8 23-12 25-10 27-8 25-5z" fill="#fff"/>
<path transform="translate(312,182)" d="m0 0h45l25 3 24 5 21 7 18 8 16 10 10 8 10 9 11 14 9 16 6 14 5 21 1 12-11-2-28-6-21-3-13-1h-32l-44-22h-1l-10 46-2 4-14 9-10 8-10 9-9 9-13 17-9 16-7 15-5 15-4 19-1 8v26l3 21 6 21 9 21 11 18 11 13 14 14 15 11 16 9 15 7 24 8 22 5 19 3 14 13 10 8-2 6-12 22-15 28-70 130-4 7-10-2-24-8-24-11-17-9-19-12-18-14-15-13-18-18-9-11-13-17-11-17-9-16-12-25-9-25-5-17v-4h-2l-6 30-1 9v34l3 19-8-6-8-8-11-14-7-10-10-17-9-21-7-21-5-24-3-25v-43l3-28 5-27 9-36 8-25-10 9-12 12-13 17-10 15-9 17h-1l1-13 6-28 7-22 8-21 10-21 12-20 14-19 11-12 7-8 11-10 17-13 18-11 16-8 14-6 21-7 11-2-2-4-9-4-11-2h-37l-15 1 5-6 14-11 15-10 18-10 22-10 27-9 25-6 26-4z" fill="#0065A4"/>
<path transform="translate(490,460)" d="m0 0h23l15 5 8 6 8 9 1 4-16 24h14l8 1-2 5-9 16h43l16-15 10-9 13-12h235v12l-2 30-27 1-19 3-21 6-20 8-21 11-19 12-16 12-10 8-14 12-12 11-28 28-7 8-9 10-9 11-11 13-11 14-16 21-26 36-11 16-3 1-23-12-19-12-17-13-13-11-12-11-11-11-7-8 1-6 14-26 9-16 7-7 7-8 8-7 19-14 14-10v-32l-17-14-10-8-8-6-4 21-11-11h-2l-9 20-8-4-10-8-8-9-7-12-4-11-1-5v-19l4-12 8-11 9-8 14-8 17-6z" fill="#FE2D30"/>
<path transform="translate(372,302)" d="m0 0 6 2 30 15 8-1 15-2h25l54 6 18 1 5 12 8 18 9 16 10 13 9 10 7 8 9 9 11 9 13 10 12 8 28 21-15 15-8 7-15 14-10 9-13 12-9 8h-23l8-15 4-7h-21l2-5 6-9-3-9-8-11-10-7-11-5-9-2-15-1-17 2-19 5-12 5-14 9-10 9-7 10-5 12-1 5v21l3 12 8 16 10 13 9 8 14 8 9 3 1-5 5-11 7 6 9 9 3-16 1-7 5 2 13 11 2 1v23l-19 14-16 12-6-1-21-13-5-3-20-2-19-4-20-7-19-9-18-12-11-9-10-9-7-8-11-15-9-16-6-15-5-19-1-7v-30l4-20 6-18 10-19 10-14 11-12 12-12 16-12 7-4 3-19 2-16z" fill="#0065A4"/>
<path transform="translate(829,552)" d="m0 0h24l-3 23-7 34-7 26-12 36-13 32-14 29-13 25-17 28-7 11-7 3-24 5-24 3-16 1h-21l-26-2-25-4-25-6-24-8-3-2 2-5 10-13 12-17 16-21 9-12 11-14 18-22 9-10 7-8 9-10 14-15 12-12 8-7 11-10 14-11 13-10 19-12 23-12 18-7 21-5z" fill="#FE2D30"/>
<path transform="translate(659,192)" d="m0 0h39l28 3 29 6 14 4 8 11 13 22 15 28 13 29 10 27 8 24 8 30 7 36 2 18-17-1-20-4-17-5-25-11-22-13-17-12-14-11-14-12-13-12-26-26-7-8-10-11-9-11-11-13-11-14-14-18-28-38v-2l24-7 23-5 22-3z" fill="#FE2D30"/>
<path transform="translate(557,216)" d="m0 0h3l10 14 13 18 16 21 10 13 13 16 11 13 12 14 14 15 9 9 4 5 8 7 10 10 11 9 14 12 18 13 21 13 15 8 25 10 17 5 17 3 27 2 2 29v3h-216l6-7 10-9 6-5-1-3-19-14-16-12-16-11-13-10-13-12-9-9-9-11-8-10-9-15-7-15-7-19-10-9-3-2-5-24-6-18-8-16v-2l21-13 25-13z" fill="#FE2D30"/>
<path transform="translate(873,558)" d="m0 0 6 2 14 9 10 8 13 12 7 8 14 18 12 19 4 8-12 21-11 16-10 13-11 13-14 15-14 13-14 11-15 11-21 13-23 12-17 7-2-1 13-21 14-26 11-23 13-31 13-38 10-37 7-36z" fill="#FE2D30"/>
<path transform="translate(793,214)" d="m0 0 9 3 23 11 17 10 12 8 16 12 11 9 13 12 15 15 9 11 11 14 12 18 8 13-1 5-11 16-11 14-12 13-7 7-13 10-16 9-5 1-1-1-5-29-7-30-9-29-9-25-11-26-12-25-13-23-10-17z" fill="#FE2D30"/>
<path transform="translate(877,494)" d="m0 0h110v26l-3 27-5 25-7 25-8 21-2 2-6-9-10-16-13-16-7-8-8-7-13-10-17-9-13-5 1-22z" fill="#FE2D30"/>
<path transform="translate(959,373)" d="m0 0 2 1 9 23 8 26 6 29 2 16v10h-109l-2-27v-8l8-3 16-7 12-7 10-8 12-11 9-10 13-18z" fill="#FE2D30"/>
<path transform="translate(452,351)" d="m0 0 11 3 20 8 16 8 14 9 4 5-2 1-46 4-3-5-14-31z" fill="#fff"/>
</svg>
