<?xml version="1.0" encoding="UTF-8" standalone="no"?>
<!DOCTYPE svg PUBLIC "-//W3C//DTD SVG 1.1//EN" "http://www.w3.org/Graphics/SVG/1.1/DTD/svg11.dtd">
<svg width="100%" height="100%" viewBox="0 0 2000 2000" version="1.1" xmlns="http://www.w3.org/2000/svg" xmlns:xlink="http://www.w3.org/1999/xlink" xml:space="preserve" xmlns:serif="http://www.serif.com/" style="fill-rule:evenodd;clip-rule:evenodd;stroke-linecap:round;stroke-linejoin:round;stroke-miterlimit:1.5;">
    <g transform="matrix(0.975123,0,0,0.975123,-12.9182,14.7985)">
        <path d="M1888.89,490.282L1888.89,1530.39C1888.89,1713.99 1739.83,1863.05 1556.23,1863.05L521.29,1863.05C337.69,1863.05 188.63,1713.99 188.63,1530.39L188.63,490.282C188.63,306.682 337.69,157.623 521.29,157.623L1556.23,157.623C1739.83,157.623 1888.89,306.682 1888.89,490.282Z"/>
    </g>
    <g id="_2sEM6UO9y3mmCpyvdiHfqcKgbKj.svg" serif:id="2sEM6UO9y3mmCpyvdiHfqcKgbKj.svg" transform="matrix(7.45098,0,0,7.45098,1000,1000)">
        <g transform="matrix(1,0,0,1,-113.5,-127.5)">
            <g transform="matrix(1,0,0,1,108.25,37.5)">
                <path d="M0,0L7.5,0L15.25,0.5L23.25,1.75L30.5,3.5L39.5,6.5L44.75,8.75L48.75,10.75L53,13L58.25,16.25L62.5,19.25L65.25,21.5L67.75,23.75L69.75,25.5L72.25,27.75L74.25,29.75L76,31.75L78.75,34.75L82,39L85,43.25L88,48.25L90.75,53.25L93.75,60L95.75,65.25L105.5,65.25L107,66.25L108.75,68L109.75,70L111,77.75L114.5,99.75L115.5,106L115.25,107.5L114,109L106.75,110L99.75,111.25L97.75,120.25L95.5,127.5L93.25,133.5L90.25,140L87.75,144.25L86.25,147L83,151.75L80,155.75L77,159.25L74.75,162L70,166.75L67.25,169L64.25,171.5L59.5,175L56.5,177L52.75,179.25L48.25,181.75L41.75,184.75L35,187.25L28.25,189.25L21,190.75L13.75,191.75L11,192L-3.75,192L-11.75,191L-18,189.75L-24,188.25L-30.5,186L-37.5,183L-42.5,180.5L-49.25,176.5L-53.75,173.25L-56.25,171.25L-59.75,168.5L-61.5,166.75L-63.5,165L-67,161.5L-70.5,157.5L-72.5,155L-74.75,152L-78.25,146.75L-80.75,142.5L-83.25,137.75L-87.25,138.25L-92.25,139L-94.5,138.75L-96.75,137.5L-100.5,134.25L-101.5,132.75L-101.5,121.5L-101,104.25L-100.75,102.25L-100.5,91.5L-100.5,82.25L-102.25,80.5L-103.75,79.25L-104.5,77.5L-104.25,75.5L-103.25,74L-101.5,72.75L-100.75,72.5L-90,72L-89.25,70.25L-86.75,62.75L-84.25,56.75L-81.75,51.5L-79,46.5L-75,40.5L-72.75,37.5L-69.5,33.5L-67.25,31L-60,23.75L-56.5,21L-53.25,18.5L-49.75,16L-42.75,11.75L-35.75,8.25L-30.75,6.25L-22.5,3.5L-15.25,1.75L-7.75,0.5L0,0Z" style="fill:rgb(2,2,3);fill-rule:nonzero;"/>
            </g>
            <g transform="matrix(1,0,0,1,203,149.25)">
                <path d="M0,0L1.75,0L1.5,2.5L0,8.75L-2,15.25L-4.75,22L-7.25,27.5L-10.25,33L-12.5,36.5L-15,40L-17.75,43.5L-20.75,47L-28.5,54.75L-35.5,60.25L-41.5,64.25L-48.5,68L-52.25,69.75L-58.5,72.25L-66.25,74.75L-71.5,76L-79,77.25L-83.25,77.75L-88,78L-93.25,78L-101.25,77.5L-108.75,76.25L-115.25,74.75L-123.25,72.25L-129.75,69.5L-136.25,66.25L-139.75,64.25L-143.25,62L-146.75,59.5L-150.25,56.75L-153.75,53.75L-157,50.75L-160,47.75L-162.25,45L-164.25,42.75L-167,39L-169.25,35.75L-172.75,30.25L-175,26.25L-174.75,25.5L-165.5,24L-162.25,23.25L-160.25,21.75L-159,22L-159,22.5L-154.5,22.75L-151.5,27.5L-149.25,30.5L-147,33L-145.25,35L-139.75,40.5L-136.25,43.25L-131.5,46.75L-126.25,49.75L-120,52.75L-114.25,55L-108.25,56.75L-102.25,58L-96,58.75L-85,58.75L-78,58L-72,56.75L-67.75,55.5L-61.75,53.25L-57.75,51.5L-53,49L-49,46.5L-44.5,43.25L-41.75,41L-36.75,36.5L-33.5,33L-31.25,30.25L-28.5,26.75L-25,20.75L-22.25,15.5L-19.5,8.75L-18.25,5L-17.75,3L-17,2.5L-14,2.25L-9.75,1.5L-6.75,1.25L-6.25,0.25L-3.75,0.5L0,0Z" style="fill:rgb(206,36,26);fill-rule:nonzero;"/>
            </g>
            <g transform="matrix(1,0,0,1,107.5,40.25)">
                <path d="M0,0L9.25,0L15.5,0.5L23.5,1.75L30,3.25L39,6.25L46,9.25L51.75,12.25L57,15.5L61.5,18.75L64.5,21.25L67,23.25L68.75,25L70.75,26.75L73,29L74.75,31L77.25,33.75L80,37.25L83.5,42.25L86.5,47.25L90,54L93,61L93.25,62.5L93,62.75L86.75,63L82.5,63L82.25,64L80.75,64L80,63.25L73.75,63.25L71.75,59.25L69,54.25L66.25,50.25L63.75,47L61.5,44.25L58.5,41L57,39.25L53.5,36.5L50.5,34L45.25,30.5L40.5,27.75L36.5,25.75L30.25,23.25L27.5,22.25L27.25,19.25L26.25,18L24,16.75L23,16.5L19.5,16.5L18,17.25L16.25,19.75L11.5,19.25L3,19L2.5,18.75L3,17.5L5,13.75L6.75,11.5L9.25,10.5L10.25,9.5L10.25,8L9,6.5L7.5,5.75L6.25,6L4.25,8.5L-0.25,13.5L-2,16L-3.25,18.25L-3.25,19.25L-5.5,19.75L-12,21L-18.25,22.75L-23,24.5L-28,26.75L-32.25,29L-38.25,32.75L-41.75,35.5L-45.25,38.5L-49,42L-50.75,44L-51.75,45.25L-52.25,45.25L-52.75,46.25L-55.75,50.25L-58.25,54L-61.25,59.25L-63.5,64L-65.25,68.25L-65.5,68.5L-76.5,68.75L-82.25,69L-85.75,69L-86,68.5L-84.75,65.25L-83.25,60.75L-80.5,54.25L-78.5,50.25L-76.25,46L-72.75,40.5L-70.5,37.5L-67.75,34L-65,30.75L-58,23.75L-56,22L-52.25,19L-47.75,15.75L-42.5,12.5L-35.75,9L-29.5,6.25L-20.5,3.25L-12.75,1.5L-6,0.5L0,0Z" style="fill:rgb(252,252,252);fill-rule:nonzero;"/>
            </g>
            <g transform="matrix(1,0,0,1,114.25,46.5)">
                <path d="M0,0L1.25,0.25L2.5,1.5L2.5,2L3,2L2.75,3L1.25,4.25L-0.5,4.5L-1.75,6L-4.25,10.25L-5.25,13.25L-4.25,13.75L-2,15.75L0.25,19L1,19L3.25,19.75L5.75,21.5L6.75,23.75L5.5,25L4.75,25.5L5,24.25L5.5,24.25L5.75,23L4.5,23.5L1.25,26.5L0,28.25L-0.5,28.25L-1.25,32L-2.75,36.5L-3.5,39.25L-4,39.25L-4,38.75L-4.5,38.75L-4.75,37.75L-5.5,37.5L-6.25,36.25L-7.25,35.5L-7.25,34.75L-8,34.75L-7.75,35.5L-10,35.5L-12.5,35.75L-14,35L-15.75,33.25L-15.75,34.5L-14.5,35.25L-14.75,36L-15.5,35.25L-16.5,34.75L-18.75,36.5L-21.75,39.5L-22.25,39.25L-23.25,41L-26,45L-27.75,47.25L-26.5,47L-18,46.75L-14.5,46.5L-14.5,44.75L-15.5,43L-16,42.25L-16,41.25L-15.5,41L-15.25,38.75L-14.75,38.5L-14.75,39L-13.25,38.75L-13,38L-11,38.25L-9.75,38.75L-10,41L-11,45L-11.5,49.25L-11.75,55L-13.75,59L-14.5,60L-16.25,60L-16,57.5L-17,58L-29.75,58.75L-32.25,58.75L-32.25,57.75L-32.75,58.5L-33,60.5L-33.25,60.75L-39.75,61L-42.25,61.25L-43.5,62.5L-45,62.25L-47,61.25L-50,61.25L-50.25,60.5L-50,59.75L-57,59.75L-68.75,60L-68.5,58.75L-65.5,52.75L-63.25,49L-62.25,48L-57,47.75L-50.25,47.75L-49.5,48.5L-48.5,50.75L-46.25,53.75L-46.25,54.25L-45,54.5L-44.5,54.75L-42,54.75L-39.25,53L-36.5,50.75L-35,49.5L-33.75,50.75L-31,53L-30.5,53.25L-30.25,51.75L-29.5,50.25L-30.75,52L-32,51.5L-34.25,49.75L-33.75,48.5L-31.5,45.75L-28.75,42.5L-26.5,39.75L-24.25,37.25L-23.25,36L-33.5,36L-43,36.25L-47.75,36.5L-52,36.5L-52.75,36L-48.25,31.5L-44.75,28.75L-40.25,25.75L-37,24.25L-21.5,23.75L-14.25,23.75L-12.75,24.25L-12.75,24L-9.75,23.5L-1.5,23.5L-4.5,20.25L-7.75,15.75L-9.25,13.75L-9.25,12.25L-8,10L-5.75,7.25L-3.5,4.75L-0.5,1L0,1L0,0Z" style="fill:rgb(204,36,26);fill-rule:nonzero;"/>
            </g>
            <g transform="matrix(1,0,0,1,91,149.75)">
                <path d="M0,0L1,0.5L1.5,3L2,12.75L2.5,14L3.25,14.75L5.25,15L12.25,14L15.25,13.25L16.75,12.25L17.25,11L17.25,6L17.75,5.75L20,8.5L21,10L21,10.5L21.5,10.5L25,15.5L28,20.5L30.5,25.75L32,30.25L32.75,34.25L32.75,36.5L32.25,39.25L31.5,41L30.75,41.25L27.75,41.5L20.75,41.5L13.5,40.75L8.5,39.75L2.25,38L-5,35.5L-11.5,32.75L-16.25,30.5L-20.25,28.5L-26.5,25L-31.25,22L-32.75,20.75L-32.5,20L-26.5,19.75L-22.5,19L-18.25,18.25L-17,17.75L-16.25,16.75L-15,17L-14.5,17.5L-10.75,17.5L-8,17L-3.25,16.25L-1.5,15.75L-0.25,14.5L0.25,13.5L0.25,9.75L0,4L0,0Z" style="fill:rgb(210,109,29);fill-rule:nonzero;"/>
            </g>
            <g transform="matrix(1,0,0,1,126,58.75)">
                <path d="M0,0L2.5,0.25L3.75,1.5L4.5,3L4.5,5.75L5.75,5.25L6.75,5.25L6.25,6.5L4.5,7.75L3.5,10.25L3.5,11.5L4.25,12.75L4.75,13L4.5,10.75L9.75,10.25L16,10.25L17,10L18.75,10L22.75,12L25.75,13.75L28.5,15.5L31.25,17.5L34.5,20.25L34.5,21L33.5,21.25L30.25,21.5L17.75,21.75L12.75,22L10.5,21.75L9.75,20L8.25,17L7.5,16.25L9.25,19.25L9.5,20L9.5,23.75L9,25L9.25,26L9.75,26.5L10,31.75L11,35.75L11,38L10.25,41.75L9.25,44.75L8.5,45L8,41.5L6.25,38.75L6.25,33.25L5.5,29.5L5,23L3.5,22.75L4.75,24.75L4.5,25.5L2.5,26.75L0.25,29.75L-3.25,35.25L-5,38.5L-5.5,38.5L-5.5,37.75L-6,37.75L-6,38.25L-7.5,39L-5.5,39.5L-5.25,40.75L-5.5,42L-4.75,39.5L-3.75,39.5L-2.75,40.75L-3,42.25L-3.25,42.75L-3.25,45L-2.75,46.75L-4.25,47L-6.25,47L-6.5,45.75L-6.25,45.25L-6.75,45.25L-6.75,47L-8.5,47.25L-20.25,47.75L-24.5,47.75L-25.5,47.25L-25,47L-24.5,46L-22.75,42.75L-21.5,40.25L-21,40.25L-21,39.75L-20.5,39.75L-20,38.5L-19,37.25L-17.25,37L-17.5,36.5L-17.25,35L-16.75,33.75L-16.75,32.5L-17.25,32.5L-17.75,33.75L-18.5,34.25L-23,34.5L-23,32.75L-21.5,26.5L-24,26.25L-24.75,25.75L-25,26.75L-26.5,26.75L-26.75,26.5L-27,28.75L-27.75,29L-27,30.75L-26,32.5L-26,34.25L-26.25,34.5L-29.75,34.75L-38.25,35L-39.75,35.25L-38.25,33L-34.5,27.75L-34,26L-33.5,27L-29.75,23.25L-28,22.25L-26.5,23.25L-27.75,22.25L-27.75,21L-27.25,20.75L-25.5,22.75L-23.75,23.25L-19.75,23L-19.75,22.5L-19,22.5L-18.5,23.5L-17.25,24.5L-17,25.25L-16.25,26L-16.25,26.5L-15.75,26.5L-15.75,27L-15.25,27L-14.5,23.75L-13,19L-12.25,16L-11.75,16L-11.25,15L-9,12.5L-7,10.75L-6,10.5L-5.75,11L-6.25,12L-6.75,12.25L-7,13.25L-7.5,13.25L-8,14.25L-8.5,14.25L-9,15.5L-9.5,16.25L-7.75,15.5L-7.75,14.25L-7,13.5L-7,14L-5.5,13.25L-2.5,9L-2,8.75L2,8.5L3.5,7.5L1.25,8L-2.5,8L-3,7L-2.5,3.75L-1.25,0.75L0,0Z" style="fill:rgb(25,33,53);fill-rule:nonzero;"/>
            </g>
            <g transform="matrix(1,0,0,1,65.5,111.5)">
                <path d="M0,0L1.5,0.25L4.75,3.5L5,5.25L5.5,30.5L6,52.5L5.75,52.75L-2.5,54L-3.5,54L-3.75,51.75L-4,34.5L-5.25,33.25L-7.75,31L-9,30.25L-8.75,31.25L-8.5,54.5L-10.25,55L-17.25,56L-18.5,56L-18.75,10.75L-18.75,4.75L-21.25,2.5L-22.5,1.25L-22.5,1L0,0Z" style="fill:rgb(252,252,252);fill-rule:nonzero;"/>
            </g>
            <g transform="matrix(1,0,0,1,36,112.75)">
                <path d="M0,0L3.25,0L3.25,24.5L2.5,24.5L-0.25,22L-3,19.75L-6.5,16.75L-7.25,16L-7.25,9.75L-12.5,10L-12.5,20.75L-13,45L-13.25,48L-7.75,47.25L-7.5,31L-6.25,31.5L-4,33.5L-1.25,35.75L1.75,38.25L3,39.25L3,55.75L0.75,56.25L-18.75,59L-20.25,59L-22.25,57L-24.5,55.25L-24.25,44.5L-23.25,8.25L-23.25,5L-26.75,2L-27,1.25L-24.5,1L0,0Z" style="fill:rgb(252,251,251);fill-rule:nonzero;"/>
            </g>
            <g transform="matrix(1,0,0,1,101.25,110)">
                <path d="M0,0L1,0.25L1.25,2L1.75,13.5L3.5,46.75L3.5,49.5L1.5,50L-4.75,50.75L-5,50.5L-5.5,40L-6.5,37.5L-10.25,29.75L-13,23.5L-14.5,20.5L-14.5,20L-15,20L-14.5,27L-13.75,47L-13.5,51.75L-14.75,52.25L-22.5,53.25L-22.75,53L-24,9.75L-24.25,4.75L-25.5,3.5L-27.25,2L-27.5,1.25L-17.5,0.75L-15.5,0.75L-13.5,4.75L-8.75,14.5L-6.75,18.75L-6.25,19.25L-6.5,16.25L-7,4.5L-7,0.5L0,0Z" style="fill:rgb(252,251,251);fill-rule:nonzero;"/>
            </g>
            <g transform="matrix(1,0,0,1,54,170.75)">
                <path d="M0,0L1.5,0.25L2.75,1.25L2.75,1.75L3.75,2L3.75,2.5L4.75,2.75L5.5,3.25L5.5,3.75L6.5,4L10.75,6.75L16,9.75L20,11.75L25.25,14.25L31.75,16.75L39.5,19.25L49.25,21.5L56.75,22.5L60,22.75L68,23L67.75,24L63.5,28.25L60,30.75L55.75,33L51.75,34.25L50.5,34.5L45.75,34.5L39.25,33L31,30.25L25.5,27.75L20.25,24.75L15.25,21.25L12.5,19L9.25,16.25L5.25,12.25L3.5,10.25L1,7.25L-2,3L-3.25,1.25L-3,0.5L0,0Z" style="fill:rgb(210,108,28);fill-rule:nonzero;"/>
            </g>
            <g transform="matrix(1,0,0,1,143.25,108.25)">
                <path d="M0,0L4,0L6.5,2.5L7,4.25L10.5,42L10.75,44.5L9.25,45L5,45.5L3.75,45.5L3.25,41.5L2.25,29L0,26.5L-1.25,25.5L-1.5,25.5L0,42.5L0.25,46L-5.5,47L-7,47L-7.75,39L-9.25,19L-10.25,5.75L-10.75,3.5L-13.25,1L-13.25,0.5L0,0Z" style="fill:rgb(251,251,251);fill-rule:nonzero;"/>
            </g>
            <g transform="matrix(1,0,0,1,166.75,107.25)">
                <path d="M0,0L1.5,0.25L3.75,2.5L4.25,4.5L5.25,13.5L5,15L4,16.25L1.5,19.75L1.25,20.75L2.25,21.25L6.25,25.25L6.75,26.5L8,38.25L8,40L6.25,42.75L5.75,43.25L-6.5,45L-7.5,45L-8,42.75L-10,21.75L-11.75,4L-13.5,2L-14.5,0.75L-14.25,0.5L0,0Z" style="fill:rgb(251,251,251);fill-rule:nonzero;"/>
            </g>
            <g transform="matrix(1,0,0,1,132.25,157)">
                <path d="M0,0L1,0.25L2,1.5L2.75,1.75L5,1.75L11.75,0.75L14,0.25L14.25,1.75L14.25,8.5L13.75,20.5L13.25,28.25L12.75,29.25L9,30.5L5,31.75L-3.75,33.75L-4.75,33.75L-4.25,31.25L-4,27.25L-4.5,23.75L-6,18.75L-8,14.25L-10.75,9.25L-13.25,5.25L-13.25,4.25L-11.25,4.25L-6.5,3.25L-5,3L-4.5,1.75L-3.75,0.75L0,0Z" style="fill:rgb(210,109,28);fill-rule:nonzero;"/>
            </g>
            <g transform="matrix(1,0,0,1,101.25,84.5)">
                <path d="M0,0L2,0.25L3.25,0.75L3,3L2,7L1.5,11.25L1.25,17L-0.75,21L-1.5,22L-3.25,22L-3,19.5L-4,20L-16.75,20.75L-19.25,20.75L-19.25,19.75L-19.75,20.5L-20,22.5L-20.25,22.75L-26.75,23L-29.25,23.25L-30.5,24.5L-32,24.25L-34,23.25L-37,23.25L-37.25,22.5L-37,21.75L-44,21.75L-55.75,22L-55.5,20.75L-52.5,14.75L-50.25,11L-49.25,10L-44,9.75L-37.25,9.75L-36.5,10.5L-35.5,12.75L-33.25,15.75L-33.25,16.25L-32,16.5L-31.5,16.75L-29,16.75L-26.25,15L-23.5,12.75L-22,11.5L-20.75,12.75L-18,15L-17.5,15.25L-17.25,13.75L-16,11.5L-15.25,9.75L-13.5,9L-5,8.75L-1.5,8.5L-1.5,6.75L-2.5,5L-3,4.25L-3,3.25L-2.5,3L-2.25,0.75L-1.75,0.5L-1.75,1L-0.25,0.75L0,0Z" style="fill:rgb(204,36,26);fill-rule:nonzero;"/>
            </g>
            <g transform="matrix(1,0,0,1,183.5,106.5)">
                <path d="M0,0L3.5,0L5.5,1.75L6.5,4L7.5,12L7.75,13.5L6.75,15.25L4.75,18.25L4.25,19.5L8.75,24L9.25,25.5L11,39L11,40.75L9,41.25L5.5,41.5L5.25,41.25L3.5,27.25L2.75,25.5L0.75,23.5L0.25,23.25L0.75,27.25L2.25,40L2.25,42L2,42.25L-2,42.75L-3.5,42.75L-3.75,42.5L-5.75,24.75L-8.25,3.75L-9,2.5L-10.25,1.5L-10.5,0.5L0,0Z" style="fill:rgb(251,251,251);fill-rule:nonzero;"/>
            </g>
            <g transform="matrix(1,0,0,1,126,58.75)">
                <path d="M0,0L2.5,0.25L3.75,1.5L4.5,3L4.5,5.75L5.75,5.25L6.75,5.25L6.25,6.5L4.5,7.75L3.5,10.25L3.5,11.5L4.25,12.75L4.75,13L4.5,10.75L9.75,10.25L16,10.25L17,10L18.75,10L22.75,12L25.75,13.75L28.5,15.5L31.25,17.5L34.5,20.25L34.5,21L33.5,21.25L30.25,21.5L17.75,21.75L12.75,22L10.5,21.75L9.75,20L8.25,17L7.5,16.25L9.25,19.25L9.5,20L9.5,23.75L9,25L9.25,26L9.75,26.5L10,31.75L11,35.75L11,38L10.25,41.75L9.25,44.75L8.5,45L8,41.5L6.25,38.75L6.25,33.25L5.5,29.5L5,23L3.5,22.75L4.75,24.75L4.5,25.5L2.5,26.75L0.25,29.75L-3.25,35.25L-5,38.5L-5.5,38.5L-5.25,37L-3.25,33.5L-1.5,30.75L1.5,26.5L2.75,25L2.75,23L3.75,18.25L6,14.75L6,14.25L5.5,14.25L5.5,14.75L4.25,16L2.75,18L2.5,17L4.5,13.75L4.75,13.25L3.5,14L2,16L0,17.25L-1.5,17.75L-3.75,17.75L-5.25,16.5L-6,14L-2.5,9L-2,8.75L2,8.5L3.5,7.5L1.25,8L-2.5,8L-3,7L-2.5,3.75L-1.25,0.75L0,0Z" style="fill:rgb(205,36,26);fill-rule:nonzero;"/>
            </g>
            <g transform="matrix(1,0,0,1,206.75,105.5)">
                <path d="M0,0L7.25,0L9.25,2.5L10.25,8L14.75,37.5L14.5,38.25L11.25,38.75L9.75,38.75L9.5,38.5L7.5,25L6.75,23.5L4.75,21.75L5.5,27.5L7,37.75L7,39.25L2.75,40L1.75,39.75L-2.5,10L-3.25,4.25L-4,2.5L-5.25,1.25L-5.5,0.25L0,0Z" style="fill:rgb(251,251,251);fill-rule:nonzero;"/>
            </g>
            <g transform="matrix(1,0,0,1,125.25,109)">
                <path d="M0,0L1.5,0L2,0.75L2.5,7.25L2,7.75L-2.75,8L-2.75,11.5L-0.5,45.25L-0.5,47.75L-2.25,48.25L-6,48.75L-8,48.75L-8.25,48.5L-9.25,32.5L-10.5,12.75L-10.5,8.5L-14,8.75L-16.5,8.75L-17,4.25L-18,3L-19.5,2L-19.75,1L-19.5,0.75L0,0Z" style="fill:rgb(251,251,251);fill-rule:nonzero;"/>
            </g>
            <g transform="matrix(1,0,0,1,80.75,82.25)">
                <path d="M0,0L10.5,0L9,2L6.75,4.5L0,12.75L-0.75,14L0.25,14.5L2.25,16L3,15.75L4.5,13.25L4.75,13.75L3.25,16.75L3,17.5L2,17L-0.25,15.25L-1.5,14L-3.5,15.75L-6.75,18.25L-8.5,19.25L-11,19.25L-12.75,18.5L-14.25,16.5L-15.75,14.25L-16.25,12.25L-28.75,12.25L-27.75,10.25L-25,6.75L-22.25,3.5L-20.5,1.5L-19.5,1L-14.25,0.5L-9.5,0.25L0,0Z" style="fill:rgb(5,123,53);fill-rule:nonzero;"/>
            </g>
            <g transform="matrix(1,0,0,1,167.25,154.5)">
                <path d="M0,0L1,0L0.75,2L-2.25,14.5L-4.75,25L-5.75,26.25L-10,28.5L-15.5,30.5L-18.25,30.75L-18,2.75L-16.25,2.25L-11.75,1.5L-10.75,0.5L-9.5,1L-6.5,1L0,0Z" style="fill:rgb(210,108,29);fill-rule:nonzero;"/>
            </g>
            <g transform="matrix(1,0,0,1,142.5,82.5)">
                <path d="M0,0L1,1L1.5,2.25L2.25,3.5L2.25,9L9.5,9L12.5,8.75L21.75,8.5L28.5,8.5L29.75,9.75L32.25,13.5L35.5,19L35.25,19.75L22.75,20L10.25,20.5L10,22L9.5,22.25L7.75,22.25L7.5,21.25L3.75,21.25L3,21L2.75,22.25L-0.5,22.25L-0.75,14.5L-1.25,9.25L-2.25,7.75L-3,7L-3,5L-3.5,4.25L-3.5,3L-2.75,3L-1.5,2.75L-0.25,2.25L0.75,2.25L0.75,1.75L-0.5,1.5L0,0Z" style="fill:rgb(204,37,27);fill-rule:nonzero;"/>
            </g>
            <g transform="matrix(1,0,0,1,175.75,169.75)">
                <path d="M0,0L0.25,0.75L-2,4L-4,6.75L-6.25,9.5L-8.5,12L-10.25,14L-15.25,19L-19.5,22.25L-24.75,25.75L-30.25,28.75L-34.25,30.75L-38.25,32.25L-42.25,33.5L-47,34.75L-52.75,35.75L-59.25,36.5L-66,36.5L-66.25,36L-63.5,35L-61.25,34L-58.5,32.5L-55,30L-51.5,27L-49,24.25L-46.5,23.75L-34.75,21.75L-33,21.5L-32.75,21.75L-33,24L-34.75,26.75L-37,29L-38.75,31L-37.75,30.75L-35.5,29.25L-34.5,29L-34,28L-31.5,25.5L-28.75,21.25L-27.25,18.25L-26.25,17.5L-21.25,16L-16,14L-14.75,14L-13.75,16L-13.25,16.25L-13,13.75L-12,11.25L-10,9.25L-7.5,7.5L-4.25,4.5L-0.75,0.5L0,0Z" style="fill:rgb(210,105,28);fill-rule:nonzero;"/>
            </g>
            <g transform="matrix(1,0,0,1,203.75,149.5)">
                <path d="M0,0L0.75,0L0.5,2L0,5.75L-2.25,13.5L-4.75,20L-7,25.25L-9.5,30L-11.5,33.5L-13.25,36.25L-15.75,39.75L-18.5,43.25L-21.5,46.75L-29.25,54.5L-36.25,60L-42.25,64L-49.25,67.75L-53,69.5L-59.25,72L-67,74.5L-72.25,75.75L-79.75,77L-84,77.5L-88.75,77.75L-94,77.75L-102,77.25L-109.5,76L-116,74.5L-124,72L-130.5,69.25L-137,66L-140.5,64L-144,61.75L-147.5,59.25L-151,56.5L-154.5,53.5L-157.75,50.5L-160.75,47.5L-163,44.75L-165,42.5L-167.75,38.75L-170,35.5L-173.5,30L-175.75,26L-175.5,25.25L-173.75,25L-170,25L-171,25.5L-173.75,25.75L-173.75,26.25L-173.25,26.25L-172.75,27.75L-172.5,29.25L-171.5,29.75L-171.25,31L-170,31.75L-169,34L-168,35.5L-167.75,36.5L-166.5,38.25L-166,38.25L-165.75,39.5L-165.25,39.75L-165.25,40.25L-164,40.75L-162,43.25L-162,44.5L-161.25,45L-161.25,45.5L-160.25,45.75L-160.25,46.25L-159.5,46.5L-159.25,47.25L-158.25,47.75L-157.5,48.5L-156.75,48.5L-156.25,50.25L-155.5,50.75L-155.75,51.25L-154.25,51.75L-153.75,52.75L-153.25,53L-153.25,53.5L-151.25,53.5L-151.25,54L-150.75,54L-149.75,55L-149.75,55.5L-148.75,55.75L-147.75,56.25L-146.75,57.25L-147,57.5L-146.25,57.75L-146,58.75L-145.25,58.75L-145,59.75L-144,59.75L-143.75,60.25L-142.5,60.5L-142,61.5L-141,61.75L-139.25,62.5L-138,63L-137.75,63.25L-136.5,64L-135.5,65L-130.5,67.5L-128.75,68.25L-123,70.5L-121.25,71L-119.25,71.75L-116,72.75L-114.75,73L-111.5,73.75L-106.5,74.75L-103.25,75.25L-93.5,76L-87.5,76L-87.5,75.75L-86.25,75.75L-85.75,76L-84.25,75.75L-82.25,75.5L-78.75,75.5L-78.5,75L-78.25,74.75L-74.75,74.25L-74.25,74.5L-74,74L-70,73.25L-68,72.5L-66.25,72.5L-66,72L-65.25,72L-63,71.25L-62,70.75L-60,70.25L-59.25,70.25L-59.25,69.75L-57,69L-54,68.25L-54,67.75L-52.25,67.25L-52,66.75L-50.25,66.25L-50,65.75L-48,65L-47,64.5L-46,64.5L-46,63.75L-44.25,63.5L-44.25,62.75L-43,62.25L-41.75,61.5L-41,61.5L-41,60.75L-39.25,60L-38,59.5L-37.75,58.75L-35.75,57.5L-35,57.5L-34.75,56.25L-33.75,55.75L-32.25,54.75L-31.25,54L-30.75,54L-30.75,53.5L-28.75,51.75L-27.5,50.5L-27,50.5L-26.5,49.5L-26,49.5L-26,49L-25.5,49L-25.5,48.5L-25,48.5L-24.5,47.5L-24,47.5L-23.5,46.5L-22.5,45.25L-22,45.25L-21.5,44.25L-19.25,41.5L-18.75,41.5L-18.25,40.5L-16,37.5L-15,36L-14.25,34.5L-13,33.25L-11.75,30.75L-11.25,30.5L-10.5,29L-9.5,26.75L-9,26.75L-9.25,26L-8.5,24.75L-8,24.75L-7.75,23L-6.75,20.5L-6,19.75L-5.75,17L-5,16.75L-4.75,15.5L-4.25,15.5L-3.75,13.25L-3,11.75L-2.75,10.25L-2,8.25L-2,7L-1.25,5.5L-1,2.5L-1.25,1.5L-0.75,0.75L-0.25,0.75L0,0Z" style="fill:rgb(224,68,46);fill-rule:nonzero;"/>
            </g>
            <g transform="matrix(1,0,0,1,133,74.25)">
                <path d="M0,0L1.25,1.25L2.75,3.75L3.5,6.25L10.75,6L23.25,5.75L26.5,5.5L28,5.25L29.75,7L31.75,8.75L34.5,11.75L37.25,15.25L37.75,16L37.75,16.75L37,17L31.25,17L22,17.25L19,17.5L12.25,17.5L11.75,17.25L11.5,11.75L10.75,10.5L9.75,8.5L9.25,9.25L9,9.75L10.25,10L10.25,10.5L8,11.25L6.75,11.5L6.25,11.25L6.25,12.5L6.75,13.25L6.75,15.25L8.25,17L8.5,18L4.5,18L4,19.25L3.5,19L2.75,16.25L2.5,11L1.75,10.25L2,8.75L2.25,8.25L2.25,4.5L0.75,1.5L0,0.5L0,0Z" style="fill:rgb(5,123,53);fill-rule:nonzero;"/>
            </g>
            <g transform="matrix(1,0,0,1,196.5,106)">
                <path d="M0,0L2.5,0L5.5,21.25L8,39.25L7.75,40L3.75,40.75L2.5,40.75L1.75,36L-0.75,17L-2.5,3.75L-3.25,2.25L-4.75,0.75L-4.75,0.25L0,0Z" style="fill:rgb(251,251,251);fill-rule:nonzero;"/>
            </g>
            <g transform="matrix(1,0,0,1,57.25,94.25)">
                <path d="M0,0L6.75,0L7.5,0.75L8.5,3L10.75,6L10.5,7.25L8,11L7,12L0,12L-11.75,12.25L-11.5,11L-8.5,5L-6.25,1.25L-5.25,0.25L0,0Z" style="fill:rgb(205,36,26);fill-rule:nonzero;"/>
            </g>
            <g transform="matrix(1,0,0,1,176.5,149.5)">
                <path d="M0,0L0.5,0L1.75,2.5L2.5,3L4.5,3L6.25,2.75L6.5,3.75L4.25,10L1.75,14.75L-0.75,18.25L-3,20.75L-4.75,22.75L-8.25,26.25L-10.75,28.25L-11.5,28.25L-11.25,26.75L-8,15.75L-5.75,8L-4.5,4.5L-2,3.25L-1,2L0,0Z" style="fill:rgb(210,106,29);fill-rule:nonzero;"/>
            </g>
            <g transform="matrix(1,0,0,1,98.5,79.5)">
                <path d="M0,0L1.25,1.25L2.5,2.25L3.75,2.5L7.75,2.25L7.75,1.75L8.5,1.75L9,2.75L10.25,3.75L10.5,4.5L11.25,5.25L11.25,5.75L11.75,5.75L12,8L10,12.75L9,13.5L4.5,13.75L4.5,12L6,5.75L3.5,5.5L2.75,5L2.5,6L1,6L0.75,5.75L0.5,8L-0.25,8.25L0.5,10L1.5,11.75L1.5,13.5L1.25,13.75L-2.25,14L-10.75,14.25L-12.25,14.5L-10.75,12.25L-7,7L-6.5,5.25L-6,6.25L-2.25,2.5L-0.5,1.5L1,2.5L-0.25,1.5L-0.25,0.25L0,0Z" style="fill:rgb(5,120,53);fill-rule:nonzero;"/>
            </g>
            <g transform="matrix(1,0,0,1,175.75,169.75)">
                <path d="M0,0L0.25,0.75L-2,4L-4,6.75L-6.25,9.5L-8.5,12L-10.25,14L-15.25,19L-19.5,22.25L-24.75,25.75L-30.25,28.75L-34.25,30.75L-40.25,33L-41.25,32.75L-39.75,32L-39.25,31L-38.75,31.25L-36,29.75L-35.25,29L-34.5,29L-34,28L-31.5,25.5L-28.75,21.25L-27.25,18.25L-26.25,17.5L-21.25,16L-16,14L-14.75,14L-13.75,16L-13.25,16.25L-13,13.75L-12,11.25L-10,9.25L-7.5,7.5L-4.25,4.5L-0.75,0.5L0,0Z" style="fill:rgb(210,103,28);fill-rule:nonzero;"/>
            </g>
            <g transform="matrix(1,0,0,1,103,62)">
                <path d="M0,0L2.5,0L5,3.25L7,5.75L8.25,7.75L7.75,8L1.5,8.25L-1,8.75L-1.75,9L-3,8.5L-10.25,8.5L-19.75,8.75L-25.25,8.75L-24.5,8L-20.75,6L-15.5,4L-8.25,1.75L-1.5,0.25L0,0Z" style="fill:rgb(5,123,53);fill-rule:nonzero;"/>
            </g>
            <g transform="matrix(1,0,0,1,90.75,82.25)">
                <path d="M0,0L0.5,0.25L-1.75,2.75L-4,5.5L-6.75,8.75L-9,11.5L-10,12.75L-10.75,14L-9.75,14.5L-7.75,16L-7,15.75L-5.5,13.25L-5.25,13.75L-6.75,16.75L-7,17.5L-8,17L-10.25,15.25L-11.5,14L-13.5,15.75L-16.75,18.25L-18.5,19.25L-21,19.25L-22.75,18.5L-24.25,16.5L-25.75,14.25L-26.25,12.25L-26.75,12L-26.25,11.5L-25.5,9L-23.75,6.75L-21.75,5L-20,4.25L-18.25,4.25L-16,5L-14.75,6.25L-14.5,7.5L-15.75,7.5L-16.5,8.5L-16.5,11.25L-17,12.75L-19,13.75L-18.75,14.75L-18.25,15.25L-18.25,18L-16.5,17L-14.25,15.25L-14,14L-14.25,12.5L-14,10.75L-10.75,12L-10.75,11.5L-9.25,10.5L-6,6.5L-3.75,3.75L-1,0.25L0,0Z" style="fill:rgb(3,2,4);fill-rule:nonzero;"/>
            </g>
            <g transform="matrix(1,0,0,1,79.25,96)">
                <path d="M0,0L1.25,1.25L4,3.5L4.5,4.5L3.75,6.5L2.25,9L2,11L1.75,11.25L-4.75,11.5L-7.25,11.75L-8.5,13L-10,12.75L-12,11.75L-15,11.75L-15.25,11L-13.25,7.75L-11.25,4.75L-10,5L-9.5,5.25L-7,5.25L-4.25,3.5L-1.5,1.25L0,0Z" style="fill:rgb(225,225,223);fill-rule:nonzero;"/>
            </g>
            <g transform="matrix(1,0,0,1,30,174.5)">
                <path d="M0,0L3.75,0L2.75,0.5L0,0.75L0,1.25L0.5,1.25L1,2.75L1.25,4.25L2.25,4.75L2.5,6L3.75,6.75L4.75,9L5.75,10.5L6,11.5L7.25,13.25L7.75,13.25L8,14.5L8.5,14.75L8.5,15.25L9.75,15.75L11.75,18.25L11.75,19.5L12.5,20L12.5,20.5L13.5,20.75L13.5,21.25L14.25,21.5L14.5,22.25L15.5,22.75L16.25,23.5L17,23.5L17.5,25.25L18.25,25.75L18,26.25L19.5,26.75L20,27.75L20.5,28L20.5,28.5L22.5,28.5L22.5,29L23,29L24,30L24,30.5L25,30.75L26,31.25L27,32.25L26.75,32.5L27.5,32.75L27.75,33.75L28.5,33.75L28.75,34.75L29.75,34.75L30,35.25L31.25,35.5L31.75,36.5L32.75,36.75L34.5,37.5L35.75,38L36,38.25L37.25,39L38.25,40L43.25,42.5L45,43.25L50.75,45.5L52.5,46L54.5,46.75L57.75,47.75L59,48L62.25,48.75L67.25,49.75L70.5,50.25L76,50.75L76.25,51L78.25,51.25L78.5,51.75L74,52L69.5,51.5L63.5,50.5L56.5,48.75L50,46.75L42.5,43.5L39.75,42.5L34,39.5L31.25,37.75L27.25,35L24,32.5L21.25,30.25L18.5,27.75L16.5,26L13,22.5L10.75,19.75L8.75,17.5L6,13.75L3.75,10.5L0.25,5L-2,1L-1.75,0.25L0,0Z" style="fill:rgb(221,64,43);fill-rule:nonzero;"/>
            </g>
            <g transform="matrix(1,0,0,1,131.75,73.75)">
                <path d="M0,0L1.25,0.5L3.5,4.25L3.75,5L3.75,8.75L3.25,10L3.5,11L4,11.5L4.25,16.75L5.25,20.75L5.25,23L4.5,26.75L3.5,29.75L2.75,30L2.25,26.5L0.5,23.75L0.5,18.25L-0.25,14.5L-0.75,8L-2.25,7.75L-1,9.75L-1.25,10.5L-3.25,11.75L-5.5,14.75L-9,20.25L-10.75,23.5L-11.25,23.5L-11,22L-9,18.5L-7.25,15.75L-4.25,11.5L-3,10L-3,8L-2,3.25L0,0Z" style="fill:rgb(220,213,214);fill-rule:nonzero;"/>
            </g>
            <g transform="matrix(1,0,0,1,114.25,46.5)">
                <path d="M0,0L1.25,0.25L2.5,1.5L2.5,2L3,2L2.75,3L1.25,4.25L-0.5,4.5L-1.75,6L-4.25,10.25L-5.25,13.25L-4.25,13.75L-2,15.75L0.25,19L1,19L3.25,19.75L5.75,21.5L6.75,23.75L5.5,25L4.75,25.5L5,24.25L5.5,24.25L5.75,23L4.5,23.5L1.25,26.5L0,28.25L-0.25,27.25L-0.25,25L-2,23L-4.5,20.25L-7.75,15.75L-9.25,13.75L-9.25,12.25L-8,10L-5.75,7.25L-3.5,4.75L-0.5,1L0,1L0,0Z" style="fill:rgb(234,228,228);fill-rule:nonzero;"/>
            </g>
            <g transform="matrix(1,0,0,1,126,58.75)">
                <path d="M0,0L2.5,0.25L3.75,1.5L4.5,3L4.5,5.75L5.75,5.25L6.75,5.25L6.25,6.5L4.5,7.75L3.5,10.25L3.5,11.5L4.25,12.75L3.75,13.75L2,16L0,17.25L-1.5,17.75L-3.75,17.75L-5.25,16.5L-6,14L-2.5,9L-2,8.75L2,8.5L3.5,7.5L1.25,8L-2.5,8L-3,7L-2.5,3.75L-1.25,0.75L0,0Z" style="fill:rgb(220,213,214);fill-rule:nonzero;"/>
            </g>
            <g transform="matrix(1,0,0,1,104.5,70)">
                <path d="M0,0L8,0L9.5,1L9.75,2.5L9.5,4.75L8.5,8.5L7,13L5.75,12L4,10L1.75,7.5L1.75,3.75L1.25,4.25L0.25,4.25L0,2.75L-1.75,3.5L-3.75,3.75L-5,3L-4,1.25L-3,0.75L-3,0.5L0,0Z" style="fill:rgb(195,35,26);fill-rule:nonzero;"/>
            </g>
            <g transform="matrix(1,0,0,1,47.25,172.25)">
                <path d="M0,0L1.25,0.25L2.5,1.75L4.25,4.5L6.5,7.5L8.75,10L10.5,12L16,17.5L19.5,20.25L24.25,23.75L26,25.25L32.75,28.75L37,30.75L43.25,33L49,34.5L55.5,35.75L59.75,36.25L66.75,36.5L74,36L81.5,34.75L85.5,33.75L92,31.5L95.25,30.25L96,30.5L95.5,31L93.75,31.75L91.5,32.75L90.5,32.75L90.5,33.25L87.5,34L83.5,35.25L79,36.25L71.75,37.5L69.75,37.5L69.25,37.75L65.5,37.75L63,37.5L61.25,37.5L58,37L55.5,36.75L49.25,35.5L44.25,34.25L41.25,33.25L38.75,32.5L36,31.25L33,30L27.25,26.75L23,24.25L18.75,21L16,18.75L13.5,16.75L12.25,15.5L12,14.75L11,14.25L9.75,12.75L8.5,11.5L6.25,9L4.25,6.5L2.5,4L1.25,2L1.25,1.5L-0.25,1.25L-0.75,1L-0.75,0.5L0,0.5L0,0Z" style="fill:rgb(220,62,42);fill-rule:nonzero;"/>
            </g>
            <g transform="matrix(1,0,0,1,98.5,79.5)">
                <path d="M0,0L1.25,1.25L2.5,2.25L3.75,2.5L7.75,2.25L7.75,1.75L8.5,1.75L9,2.75L10.25,3.75L10.5,4.5L11.25,5.25L11.25,5.75L11.75,5.75L12,8L10,12.75L9,13.5L4.5,13.75L4.5,12L6,5.75L3.5,5.5L2.75,5L2.5,6L1.25,5.75L0.75,4.75L-0.5,3.75L-2.5,3.5L-3,3.25L-0.75,1.5L1,2.5L-0.25,1.5L-0.25,0.25L0,0Z" style="fill:rgb(7,122,55);fill-rule:nonzero;"/>
            </g>
            <g transform="matrix(1,0,0,1,101.25,84.5)">
                <path d="M0,0L2,0.25L3.25,0.75L3,3L2,7L1.5,11.25L1.25,17L-0.75,21L-1.5,22L-3.25,22L-3,20L-2,12.25L-1.5,8.5L-1.5,6.75L-2.5,5L-3,4.25L-3,3.25L-2.5,3L-2.25,0.75L-1.75,0.5L-1.75,1L-0.25,0.75L0,0Z" style="fill:rgb(223,222,221);fill-rule:nonzero;"/>
            </g>
            <g transform="matrix(1,0,0,1,96.75,72.5)">
                <path d="M0,0L0.5,0L-0.5,4L-1.5,7L-4,11.25L-5.25,14.25L-7.25,17.25L-10.5,21.75L-13,25.75L-14,25.75L-16.75,23.75L-16.25,22.5L-14,19.75L-11.25,16.5L-9,13.75L-6.75,11.25L-4,7.75L-2.5,5L-1.75,2.5L-0.5,0.5L0,0Z" style="fill:rgb(249,249,249);fill-rule:nonzero;"/>
            </g>
            <g transform="matrix(1,0,0,1,142.5,82.5)">
                <path d="M0,0L1,1L1.5,2.25L2,2.75L2.25,11.5L2.75,17L3,22L2.75,22.25L-0.5,22.25L-0.75,14.5L-1.25,9.25L-2.25,7.75L-3,7L-3,5L-3.5,4.25L-3.5,3L-2.75,3L-1.5,2.75L-0.25,2.25L0.75,2.25L0.75,1.75L-0.5,1.5L0,0Z" style="fill:rgb(223,223,221);fill-rule:nonzero;"/>
            </g>
            <g transform="matrix(1,0,0,1,137.5,92)">
                <path d="M0,0L3.5,0L4,0.25L4.25,1.25L4.5,5L4.5,12L-1.75,11.75L-1.75,9.25L-1,6.5L-0.75,4.75L-0.75,1.5L-0.25,0.25L0,0Z" style="fill:rgb(199,35,26);fill-rule:nonzero;"/>
            </g>
            <g transform="matrix(1,0,0,1,78,98.75)">
                <path d="M0,0L1.5,0L2.5,0.5L2.5,1L3,1L3.75,3.25L3.5,6.25L0.25,7L-6.5,7.5L-8.25,7.25L-9.25,6.25L-8.75,5.25L-8.25,5.25L-8,4.75L-7.25,4.25L-5.25,3.75L-4.75,2.75L-4,2.75L-3.75,2L-2.75,1L0,0.5L0,0Z" style="fill:rgb(220,213,214);fill-rule:nonzero;"/>
            </g>
            <g transform="matrix(1,0,0,1,59.5,120.5)">
                <path d="M0,0L1.75,0L2,0.5L2,7L2.25,14.25L1,13.75L-2,11L-3,10L-3,0.25L0,0Z" style="fill:rgb(3,2,4);fill-rule:nonzero;"/>
            </g>
            <g transform="matrix(1,0,0,1,184,157.75)">
                <path d="M0,0L0.5,0.5L0.25,2.25L-0.5,2.5L-0.5,3.75L-0.25,4.25L-0.75,5.25L-1.25,5.75L-1.25,7.75L-2.5,11.25L-3.25,11.25L-3.5,12.75L-4,13.25L-5,14.75L-5.75,15.25L-6.75,17.5L-8.25,18.75L-8.5,19.25L-9,19.25L-9.25,20.25L-9.75,21.25L-11,22.75L-11.5,22.75L-12,23.75L-12.5,23.75L-12.75,24.75L-13.5,25.5L-14,25.5L-14.25,26.5L-15,26.5L-14.75,27.25L-15.75,27.75L-16.75,29.25L-18.25,30.25L-19,30.25L-19.25,31.25L-20,31.25L-20.25,32.25L-21,32.25L-21,33.25L-22,33.25L-22,33.75L-22.75,33.75L-23,34.75L-24,34.75L-24,35.25L-25,36L-26,36.25L-26,36.75L-26.75,36.5L-25.5,35.5L-24.25,34.25L-21.25,32L-19.75,30.25L-17.75,28.5L-15.75,26.5L-15.5,26L-15,26L-14.5,25L-12.5,22.75L-10,19.5L-9.25,17.75L-6,12.25L-3.25,7L-0.75,1L-0.25,1L0,0Z" style="fill:rgb(216,53,35);fill-rule:nonzero;"/>
            </g>
            <g transform="matrix(1,0,0,1,124,67.5)">
                <path d="M0,0L3,0L3,0.25L1.25,0.25L1.25,0.75L2,0.75L1.75,2L1.25,2L0.75,3.5L0.25,4L0.25,5.5L1,5.75L2.75,5.5L3.75,4.75L3.75,4L3,2.5L3,2L2.25,1.75L2.5,0.75L3.25,0.75L3.5,0.25L4,2L5.75,3L6.25,4.5L4,7.25L2,8.5L0.5,9L-1.75,9L-3.25,7.75L-4,5.25L-0.5,0.25L0,0Z" style="fill:rgb(220,213,214);fill-rule:nonzero;"/>
            </g>
            <g transform="matrix(1,0,0,1,104.25,72.5)">
                <path d="M0,0L0.5,0.25L0.5,1.75L1.75,1.25L2.25,1L2.25,5L5.75,8.75L7,10.25L6.75,12.75L6.5,13.25L6,13.25L6,12.75L5.5,12.75L5.25,11.75L4.5,11.5L3.75,10.25L2.75,9.5L2.75,8.75L1.5,8.25L-4,2.75L-3.75,1.25L-0.5,0.5L0,0Z" style="fill:rgb(234,228,228);fill-rule:nonzero;"/>
            </g>
            <g transform="matrix(1,0,0,1,98.25,103.25)">
                <path d="M0,0L0.25,0L0,2L-0.75,3.25L-3.75,3.75L-6,4.25L-7.25,5.5L-8,7.75L-9,6.75L-10.25,4.75L-11,4.25L-16.5,4L-16.75,3.5L-16.5,2.25L-13.75,1.75L-1,1L-0.25,0.75L0,0Z" style="fill:rgb(5,119,52);fill-rule:nonzero;"/>
            </g>
            <g transform="matrix(1,0,0,1,177.75,102)">
                <path d="M0,0L1.25,1.25L1.25,1.5L-5.75,2L-7.25,2.5L-7,3L-8.75,2.75L-9,2L-21.75,2.5L-23.75,2.5L-24.75,2.25L-24.5,1L-24,0.75L-12.5,0.25L0,0Z" style="fill:rgb(5,118,51);fill-rule:nonzero;"/>
            </g>
            <g transform="matrix(1,0,0,1,131.75,73.75)">
                <path d="M0,0L1.25,0.5L3.5,4.25L3.75,5L3.75,8.75L3.25,10L3.5,11L3.75,11.25L3.75,14.25L3.5,14.25L3.25,12.75L2.25,11.75L2.25,10.25L2.75,7.75L2.25,5.25L1.25,3.25L0,3L-0.5,3.75L-0.5,7.25L-2.25,7.75L-1,9.75L-1.25,10.5L-3.25,11.75L-5.5,14.75L-9,20.25L-10.75,23.5L-11.25,23.5L-11,22L-9,18.5L-7.25,15.75L-4.25,11.5L-3,10L-3,8L-2,3.25L0,0Z" style="fill:rgb(223,223,222);fill-rule:nonzero;"/>
            </g>
            <g transform="matrix(1,0,0,1,113,61.5)">
                <path d="M0,0L7.25,0.25L9.5,0.5L9.75,0.75L10,5.25L9.25,6.75L8,6.75L7.25,6L7.25,5.5L6,5L3.5,3.75L1.5,3L0,1.25L-0.25,0.5L0,0Z" style="fill:rgb(5,125,54);fill-rule:nonzero;"/>
            </g>
            <g transform="matrix(1,0,0,1,175.75,169.75)">
                <path d="M0,0L0.25,0.75L-2,4L-4,6.75L-6.25,9.5L-8.5,12L-10.25,14L-13.75,17.5L-14,17.5L-14.25,15.75L-13.25,16.25L-13,13.75L-12,11.25L-10,9.25L-7.5,7.5L-4.25,4.5L-0.75,0.5L0,0Z" style="fill:rgb(209,92,28);fill-rule:nonzero;"/>
            </g>
            <g transform="matrix(1,0,0,1,140.5,115.75)">
                <path d="M0,0L3.25,0L4.25,9.75L4.5,11.75L3.75,11.75L1.25,9.5L0.5,9L0,5.75L-0.25,0.25L0,0Z" style="fill:rgb(3,3,5);fill-rule:nonzero;"/>
            </g>
            <g transform="matrix(1,0,0,1,57.25,106)">
                <path d="M0,0L7,0L7.25,0.5L7,1L6.5,1L6.25,1.75L5.25,2L-9.25,2.5L-12,2.5L-12.25,1.25L-11.75,0.5L-10.5,0.25L0,0Z" style="fill:rgb(5,122,53);fill-rule:nonzero;"/>
            </g>
            <g transform="matrix(1,0,0,1,101.25,84.5)">
                <path d="M0,0L2,0.25L3.25,0.75L3,3L2,7L1.5,9.25L0.5,9.25L0.5,9.75L0,9.75L-0.5,8.25L-0.5,7.5L-1,7L-1.5,6.75L-2.5,5L-3,4.25L-3,3.25L-2.5,3L-2.25,0.75L-1.75,0.5L-1.75,1L-0.25,0.75L0,0Z" style="fill:rgb(233,227,228);fill-rule:nonzero;"/>
            </g>
            <g transform="matrix(1,0,0,1,163.5,131.25)">
                <path d="M0,0L1.25,0.75L2.25,2L3.5,3.25L4,4.75L4.5,10.25L4.5,12L4.25,12.25L1.25,12.5L0,1.25L0,0Z" style="fill:rgb(4,3,6);fill-rule:nonzero;"/>
            </g>
            <g transform="matrix(1,0,0,1,134.5,64.75)">
                <path d="M0,0L1.75,0.25L7,2.5L9,3.5L8.5,4.25L7.5,4.5L1.25,4.5L-3.25,4.75L-3.75,4.5L-3.5,3.5L0,0Z" style="fill:rgb(4,121,52);fill-rule:nonzero;"/>
            </g>
            <g transform="matrix(1,0,0,1,133,74.25)">
                <path d="M0,0L1.25,1.25L2.75,3.75L3.5,6.25L4,6.5L3.25,8.25L3,10L3.75,11.5L5.75,12L5.75,11L6.25,11.25L6.25,12.5L6.75,13.25L6.75,15.25L8.25,17L8.5,18L4.5,18L4,19.25L3.5,19L2.75,16.25L2.5,11L1.75,10.25L2,8.75L2.25,8.25L2.25,4.5L0.75,1.5L0,0.5L0,0Z" style="fill:rgb(12,9,13);fill-rule:nonzero;"/>
            </g>
            <g transform="matrix(1,0,0,1,203.75,149.5)">
                <path d="M0,0L0.75,0L0.5,2L0,5.75L-2.25,13.5L-4.75,20L-7,25.25L-8.5,28L-8.75,27.25L-8,26L-8.25,25.75L-9,26.5L-9.25,26L-8.5,24.75L-8,24.75L-7.75,23L-6.75,20.5L-6,19.75L-5.75,17L-5,16.75L-4.75,15.5L-4.25,15.5L-3.75,13.25L-3,11.75L-2.75,10.25L-2,8.25L-2,7L-1.25,5.5L-1,2.5L-1.25,1.5L-0.75,0.75L-0.25,0.75L0,0Z" style="fill:rgb(218,55,36);fill-rule:nonzero;"/>
            </g>
            <g transform="matrix(1,0,0,1,71.25,217.5)">
                <path d="M0,0L1.25,0.25L7,2.75L11.75,4.5L18,6.25L24.75,7.75L29.5,8.5L39,9L42.75,9L42.75,8.75L48.25,8.75L54,8.25L61.75,6.75L68.25,5L75,2.75L75.75,3L71.75,4.5L64.5,6.75L60.25,7.75L52.75,9L48.5,9.5L43.75,9.75L38.5,9.75L30.5,9.25L23,8L16.5,6.5L8.5,4L2,1.25L0,0.25L0,0Z" style="fill:rgb(206,36,26);fill-rule:nonzero;"/>
            </g>
            <g transform="matrix(1,0,0,1,128.75,92)">
                <path d="M0,0L3.25,0L3.5,2.25L2.75,4.5L2.5,4.75L0.5,4.5L-1.5,4L-5.75,3.75L-5.25,2L-4,0.5L0,0Z" style="fill:rgb(206,36,26);fill-rule:nonzero;"/>
            </g>
            <g transform="matrix(1,0,0,1,114,45.75)">
                <path d="M0,0L1.75,0.25L3.75,2L4,2.5L4,4L2.25,5.5L0,6.5L-2.25,10L-3.75,12.75L-4.75,12.75L-4,10.5L-1.25,6L-0.25,5L2,4.5L3,3.5L3.25,2.75L2.75,2.75L2.25,1.75L1.25,1L0.25,0.75L0.25,1.75L-1,3L-3,5.5L-4.75,7.25L-7.5,10.75L-8.75,13L-10,13.25L-9.5,11.75L-7.75,9L-5.5,6.5L-3.75,4.5L-1,1.25L0,0Z" style="fill:rgb(17,18,29);fill-rule:nonzero;"/>
            </g>
            <g transform="matrix(1,0,0,1,137.5,221.5)">
                <path d="M0,0L0.5,0.25L0.25,1L-0.5,1L-0.75,1.75L-2.5,1.75L-4.75,2L-4.5,3L-12.25,4.5L-18,5L-23.25,5L-23.25,5.25L-27.75,5.25L-32.25,5L-32.25,4.75L-29.25,4.5L-31.25,4.25L-31.25,4L-21.25,4L-21.25,3.75L-20,3.75L-19.5,4L-18,3.75L-16,3.5L-12.5,3.5L-12.25,3L-12,2.75L-8.5,2.25L-8,2.5L-7.75,2L-3.75,1.25L-1.75,0.5L0,0.5L0,0Z" style="fill:rgb(218,55,36);fill-rule:nonzero;"/>
            </g>
            <g transform="matrix(1,0,0,1,142.5,202.5)">
                <path d="M0,0L0.75,0.25L0.25,0.75L-1.5,1.5L-3.75,2.5L-4.75,2.5L-4.75,3L-7.75,3.75L-11.75,5L-16.25,6L-23.5,7.25L-25.5,7.25L-26,7.5L-29.75,7.5L-32.25,7.25L-34,7.25L-37.25,6.75L-39.75,6.5L-39.5,6L-35.5,6L-28.5,6.25L-21.25,5.75L-13.75,4.5L-9.75,3.5L-3.25,1.25L0,0Z" style="fill:rgb(224,67,45);fill-rule:nonzero;"/>
            </g>
            <g transform="matrix(1,0,0,1,68,100.75)">
                <path d="M0,0L1.25,0.25L1.75,0.5L4.75,0.75L3.75,1.25L3.5,2L1.5,2.25L-0.75,2.25L-1,3.25L-0.5,5L0.75,5.75L4.5,5.75L5.25,6L12.25,5.75L13,4L13.25,4L13.25,6.25L13,6.5L6.5,6.75L4,7L2.75,8.25L1.25,8L-0.75,7L-3.75,7L-4,6.25L-2,3L0,0Z" style="fill:rgb(234,227,228);fill-rule:nonzero;"/>
            </g>
            <g transform="matrix(1,0,0,1,75,89.5)">
                <path d="M0,0L1.25,0.25L1.5,3L1.75,3.25L1.75,6.25L2,7.25L1.5,8.25L-0.75,10L-1.75,10.75L-2.5,10.75L-2.75,9.75L-2.75,8L-3.5,7.25L-3.25,6.25L-1.25,5.25L-1,4L-1,1.25L0,0Z" style="fill:rgb(234,228,229);fill-rule:nonzero;"/>
            </g>
            <g transform="matrix(1,0,0,1,194.75,177.5)">
                <path d="M0,0L0.25,0.5L-1.25,3.25L-3.25,6.75L-6.5,11.5L-10,15.75L-12.25,18.5L-20.25,26.5L-27.25,32L-33.25,36L-40.25,39.75L-44,41.5L-47,42.75L-47.75,42.5L-40,39L-36,36.75L-34.25,35.75L-31,33.75L-26.75,30.75L-21.25,26.25L-15.25,20.75L-13.5,18.75L-11.25,16.5L-9,13.75L-6.75,10.75L-3.25,5.5L-0.5,0.75L0,0Z" style="fill:rgb(206,36,26);fill-rule:nonzero;"/>
            </g>
            <g transform="matrix(1,0,0,1,151,94.75)">
                <path d="M0,0L1.5,0.25L1.75,9.25L1,10L-0.75,10L-0.75,8.25L-1.75,5L-2.5,4.25L-2.75,2.25L-2.75,1.25L-0.75,0.5L0,0Z" style="fill:rgb(234,228,229);fill-rule:nonzero;"/>
            </g>
            <g transform="matrix(1,0,0,1,85.75,89.25)">
                <path d="M0,0L1.25,0.5L0.5,3L-0.25,5L-0.25,6.25L-2,9L-3,9L-5.75,7L-5.25,5.75L-3,3L-1,0.5L0,0Z" style="fill:rgb(234,227,228);fill-rule:nonzero;"/>
            </g>
            <g transform="matrix(1,0,0,1,107.75,60.75)">
                <path d="M0,0L1.75,0.75L2.25,1.75L2.75,1.75L2.75,2.25L3.25,2.25L3.25,3L5.25,3.25L5.75,3.75L7.5,5.25L7.75,6L9.75,6.75L10,8.75L10,9.5L9.25,9.5L9,10L7.25,10L6.25,9.25L5.75,7.5L5,7.25L4.5,6.25L4,6L3,4L1.75,3.25L0,1L0,0Z" style="fill:rgb(220,213,214);fill-rule:nonzero;"/>
            </g>
            <g transform="matrix(1,0,0,1,108.75,63)">
                <path d="M0,0L1.25,1.25L2.5,2L3,3L3,3.75L3.75,4L4.25,5L5,5.75L5.75,7.25L6.75,7.5L8,7.5L9,7.25L8.75,5.25L8.75,4.5L7.5,4.25L6,3.5L6.5,3.25L6.5,2.5L8.75,3.25L11.25,5L12.25,7.25L11,8.5L10.25,9L10.5,7.75L11,7.75L11.25,6.5L10,7L6.75,10L5.5,11.75L5.25,10.75L5.25,8.5L3.5,6.5L2.75,5.5L2,3.25L0.75,1.5L0.25,1.25L0,0Z" style="fill:rgb(223,223,221);fill-rule:nonzero;"/>
            </g>
            <g transform="matrix(1,0,0,1,114.25,46.5)">
                <path d="M0,0L1.25,0.25L2.5,1.5L2.5,2L3,2L2.75,3L1.25,4.25L-0.5,4.5L-1.75,6L-4.25,10.25L-5.25,12.75L-5.75,12.75L-5.5,11.25L-4.75,9L-5,7.25L-5.5,7L-2,3L-0.5,1L0,1L0,0Z" style="fill:rgb(248,247,247);fill-rule:nonzero;"/>
            </g>
            <g transform="matrix(1,0,0,1,90.75,82.25)">
                <path d="M0,0L0.5,0.25L-1.75,2.75L-4,5.5L-6.75,8.75L-9,11.5L-10,12.75L-10.75,14L-9.75,14.5L-7.75,16L-7,15.75L-5.5,13.25L-5.25,13.75L-6.75,16.75L-7,17.5L-8,17L-10.25,15.25L-11.5,14L-12,14.25L-13.5,14.25L-13.75,12.75L-14.25,12.5L-14,10.75L-10.75,12L-10.75,11.5L-9.25,10.5L-6,6.5L-3.75,3.75L-1,0.25L0,0Z" style="fill:rgb(201,36,26);fill-rule:nonzero;"/>
            </g>
            <g transform="matrix(1,0,0,1,162.25,114.5)">
                <path d="M0,0L2.75,0L3,0.5L3.5,5.25L3.25,7L1.5,9L0.75,9L0.25,7.5L-0.25,3L-0.25,0.25L0,0Z" style="fill:rgb(3,3,5);fill-rule:nonzero;"/>
            </g>
            <g transform="matrix(1,0,0,1,129.75,85.75)">
                <path d="M0,0L1,0.25L1.5,1.5L1.75,3L2,3.5L1.75,5.75L1,6.25L-1,6.5L-4.75,6.5L-4.25,5L-1.25,1.75L0,0Z" style="fill:rgb(4,122,53);fill-rule:nonzero;"/>
            </g>
            <g transform="matrix(1,0,0,1,122.75,62.25)">
                <path d="M0,0L0.25,0.75L0.75,0.75L0.5,3.5L0.75,4.25L4.5,4.25L7,3.75L5.75,5L5.25,5.25L1.25,5.5L0.25,6.5L-2.25,10L-3,10.5L-4.25,10.75L-4.25,12L-5.75,12.75L-7,13L-6,11.75L-4.75,10.5L-4.25,9.75L-3,9L-2,8L-3,5.75L-5.75,4L-7.5,3.25L-7.75,3.75L-9,2.5L-9.75,1.5L-9.5,0.5L-8.25,2L-4.5,3.5L-2.5,4.75L-1.75,5.75L-0.5,5.75L0,4.25L0,0Z" style="fill:rgb(9,11,18);fill-rule:nonzero;"/>
            </g>
            <g transform="matrix(1,0,0,1,209.5,111.75)">
                <path d="M0,0L1.75,0L2.25,0.25L3.75,9.5L3.5,10.5L0.75,7.75L0.25,6.5L-0.25,2.75L-0.25,0.25L0,0Z" style="fill:rgb(3,3,6);fill-rule:nonzero;"/>
            </g>
            <g transform="matrix(1,0,0,1,103.25,93)">
                <path d="M0,0L4.75,0L4.25,1.5L0.75,6.25L-0.25,7.5L-0.75,7.5L-0.75,2.75L-0.5,0.25L0,0Z" style="fill:rgb(202,36,26);fill-rule:nonzero;"/>
            </g>
            <g transform="matrix(1,0,0,1,184,113.25)">
                <path d="M0,0L0.75,0.25L1.25,3.75L1.25,6.5L-0.25,8.5L-1.25,8.5L-1.5,8.25L-2.25,2.75L-2.25,0.25L0,0Z" style="fill:rgb(4,3,6);fill-rule:nonzero;"/>
            </g>
            <g transform="matrix(1,0,0,1,72.75,101.5)">
                <path d="M0,0L0.5,0.25L0,1.25L-2.5,1.75L-2.75,2.25L-3.75,3L-3.75,4L-2,4.5L3,4.25L6,4L8.25,3.5L7.5,5.25L0.5,5.5L-1,5.25L-4,5.25L-5.75,4L-6,2.25L-5.5,1.25L-2.25,1.25L-1.25,1L-0.5,0.25L0,0Z" style="fill:rgb(223,224,222);fill-rule:nonzero;"/>
            </g>
            <g transform="matrix(1,0,0,1,129.25,66.5)">
                <path d="M0,0L1,0L0.75,1.25L0,3.75L-1.25,3.25L-1.75,2.75L-2,1.75L-2.75,1.75L-2.75,2.75L-1.75,3.75L-1.25,5.5L-2.5,6.75L-4.75,7L-5.25,6L-5,4.75L-4,3L-3.5,3L-3.25,1.75L-4,1.75L-4,1.25L-1.25,0.75L0,0Z" style="fill:rgb(223,224,222);fill-rule:nonzero;"/>
            </g>
            <g transform="matrix(1,0,0,1,174.75,176.5)">
                <path d="M0,0L0.25,0L0.25,1.25L-0.5,2L-0.75,3L-1.75,4L-2.25,4L-2.75,5L-3.25,5L-3.5,6L-4.25,6.75L-4.75,6.75L-5,7.75L-5.75,7.75L-5.5,8.5L-6.5,9L-7.5,10.5L-9,11.5L-9.75,11.5L-10,12.5L-10.75,12.5L-11,13.5L-11.75,13.5L-11.75,14.5L-12.75,14.5L-12.75,15L-13.5,15L-13.75,16L-14.75,16L-14.75,16.5L-15.75,17.25L-16.75,17.5L-16.75,18L-17.5,17.75L-16.25,16.75L-15,15.5L-12,13.25L-10.5,11.5L-8.5,9.75L-6.5,7.75L-6.25,7.25L-5.75,7.25L-5.25,6.25L-3.25,4L-0.5,0.5L0,0Z" style="fill:rgb(219,58,38);fill-rule:nonzero;"/>
            </g>
            <g transform="matrix(1,0,0,1,130,77.25)">
                <path d="M0,0L0.25,0.75L0.5,2.25L0.75,2.5L0.75,4L-0.5,4.25L0.75,6.25L0.5,7L-1.5,8.25L-3.75,11.25L-7.25,16.75L-9,20L-9.5,20L-9.25,18.5L-7.25,15L-5.5,12.25L-2.5,8L-1.25,6.5L-1.25,4.5L-0.25,0.25L0,0Z" style="fill:rgb(224,222,221);fill-rule:nonzero;"/>
            </g>
            <g transform="matrix(1,0,0,1,121.5,98)">
                <path d="M0,0L1,0.5L1.75,1.5L1.5,3L1.25,3.5L1.25,5.75L1.75,7.5L0.25,7.75L-1.75,7.75L-2,6.5L-1,2.75L-0.25,0.25L0,0Z" style="fill:rgb(248,247,247);fill-rule:nonzero;"/>
            </g>
            <g transform="matrix(1,0,0,1,123.5,67.75)">
                <path d="M0,0L0.5,0.25L0.5,1.25L-0.25,3.5L-0.75,3.5L-1.25,5L-1.25,7.25L2.5,7.25L3.25,7L3,8L1,8.75L-1.25,8.75L-2.75,7.5L-3.5,5L0,0Z" style="fill:rgb(225,223,222);fill-rule:nonzero;"/>
            </g>
            <g transform="matrix(1,0,0,1,160.75,211.75)">
                <path d="M0,0L0.75,0.25L-0.25,0.5L-0.25,1L-4,3.25L-6.5,4.5L-7.75,5L-9.75,6L-13,7.5L-15.25,8.5L-15.75,8.25L-15.75,8.75L-17.75,9.25L-18.75,9.75L-22.25,10.5L-22.25,9.75L-20,9L-19,8.5L-17,8L-16.25,8L-16.25,7.5L-14,6.75L-11,6L-11,5.5L-9.25,5L-9,4.5L-7.25,4L-7,3.5L-5,2.75L-4,2.25L-3,2.25L-3,1.5L-1.25,1.25L-1.25,0.5L0,0Z" style="fill:rgb(218,55,36);fill-rule:nonzero;"/>
            </g>
            <g transform="matrix(1,0,0,1,203.75,149.5)">
                <path d="M0,0L0.75,0L0.5,2L0,5.75L-2.25,13.5L-3,15.5L-3.25,14.75L-3.25,13.75L-3.75,14.5L-4,13.75L-3,11.75L-2.75,10.25L-2,8.25L-2,7L-1.25,5.5L-1,2.5L-1.25,1.5L-0.75,0.75L-0.25,0.75L0,0Z" style="fill:rgb(218,56,38);fill-rule:nonzero;"/>
            </g>
            <g transform="matrix(1,0,0,1,47.25,172.25)">
                <path d="M0,0L1.25,0.25L2.5,1.75L4.25,4.5L6.5,7.5L8.75,10L10.5,12L15,16.5L14.25,16.5L9.5,11.75L7.25,10L4.75,7.25L3,4.75L1.25,2L1.25,1.5L-0.25,1.25L-0.75,1L-0.75,0.5L0,0.5L0,0Z" style="fill:rgb(210,60,30);fill-rule:nonzero;"/>
            </g>
            <g transform="matrix(1,0,0,1,80.5,201.75)">
                <path d="M0,0L1.5,0.25L7.75,2.75L14.5,4.75L22.25,6.25L23.75,6.5L23.75,6.75L21.25,7L17,6.25L11,4.75L8,3.75L5.5,3L2.75,1.75L0.25,0.75L0,0Z" style="fill:rgb(224,68,46);fill-rule:nonzero;"/>
            </g>
            <g transform="matrix(1,0,0,1,98.75,75.5)">
                <path d="M0,0L0.5,0L0.5,1.75L-0.25,3.75L-0.25,5.5L1,6.25L0.75,7L0,6.25L-1,5.75L-3.25,7.5L-6.25,10.5L-6.5,10L-4.75,7.25L-2.5,4.5L-0.25,0.25L0,0Z" style="fill:rgb(242,241,241);fill-rule:nonzero;"/>
            </g>
            <g transform="matrix(1,0,0,1,137.5,221.5)">
                <path d="M0,0L0.5,0.25L0.25,1L-0.5,1L-0.75,1.75L-2.5,1.75L-4.75,2L-4.5,3L-12.25,4.5L-13.5,4.5L-13.75,4L-12.5,3.75L-12.25,3L-12,2.75L-8.5,2.25L-8,2.5L-7.75,2L-3.75,1.25L-1.75,0.5L0,0.5L0,0Z" style="fill:rgb(218,55,36);fill-rule:nonzero;"/>
            </g>
            <g transform="matrix(1,0,0,1,136.5,87.5)">
                <path d="M0,0L1,0L1.5,0.5L2.5,1L4.25,3L5,4.25L5,4.75L0.5,4.5L0,3.75L-0.25,0.5L0,0Z" style="fill:rgb(5,116,50);fill-rule:nonzero;"/>
            </g>
            <g transform="matrix(1,0,0,1,108.75,91.25)">
                <path d="M0,0L0.5,0L0.75,1.25L0,3L0.25,4.25L0.75,4.75L-1.25,4.75L-2.5,6L-3.25,7.25L-3.75,7.25L-3.75,7.75L-4.25,8L-5.25,10.25L-7.25,13.75L-8.25,14.25L-7.75,12.75L-6.5,10.25L-6.25,9.25L-5,8L-1.5,3.25L-0.75,1.75L-1.25,1.5L-0.25,0.5L0,0Z" style="fill:rgb(4,2,4);fill-rule:nonzero;"/>
            </g>
            <g transform="matrix(1,0,0,1,141.5,86)">
                <path d="M0,0L1.5,0.25L1.75,1.25L1.75,3.25L1,5L-0.25,5.25L-2,3.5L-2,1.25L-0.25,0.5L0,0Z" style="fill:rgb(220,213,214);fill-rule:nonzero;"/>
            </g>
            <g transform="matrix(1,0,0,1,96.75,72.5)">
                <path d="M0,0L0.5,0L-0.5,4L-1.5,7L-2.5,8.75L-2.75,8.25L-5,10L-6.5,11.25L-6,10.25L-4,7.75L-2.5,5L-1.75,2.5L-0.5,0.5L0,0Z" style="fill:rgb(228,228,227);fill-rule:nonzero;"/>
            </g>
            <g transform="matrix(1,0,0,1,132.25,95)">
                <path d="M0,0L0.5,0L0.5,1.75L1.5,1.75L2,2.75L4.25,3.25L4,5.5L3,8.5L2.25,8.75L1.75,5.25L0,2.5L0,0Z" style="fill:rgb(234,227,228);fill-rule:nonzero;"/>
            </g>
            <g transform="matrix(1,0,0,1,101,98.5)">
                <path d="M0,0L1,0.25L1.25,0.75L1.25,3.75L-1,7.75L-1.25,8L-3,8L-2.75,6L-2.25,5.25L-0.5,5L-0.25,1L0,0Z" style="fill:rgb(250,249,249);fill-rule:nonzero;"/>
            </g>
            <g transform="matrix(1,0,0,1,144.25,96)">
                <path d="M0,0L0.5,0.75L0.75,1.25L1.25,8L1,8.75L-2,8.75L-2,5.75L-1.75,6.5L-0.5,6.75L-0.25,5.75L0.25,5.75L0,3.5L-0.5,3L-0.5,1.25L0,0Z" style="fill:rgb(232,226,226);fill-rule:nonzero;"/>
            </g>
            <g transform="matrix(1,0,0,1,90.75,82.25)">
                <path d="M0,0L0.5,0.25L-1.75,2.75L-4,5.5L-6.75,8.75L-9,11.5L-10,12.75L-10.75,13L-10.75,11.5L-9.25,10.5L-6,6.5L-3.75,3.75L-1,0.25L0,0Z" style="fill:rgb(9,8,13);fill-rule:nonzero;"/>
            </g>
            <g transform="matrix(1,0,0,1,107,78.75)">
                <path d="M0,0L1,0.5L3.25,2.75L4.25,4L4,6.5L3.75,7L3.25,7L3.25,6.5L2.75,6.5L2.5,5.5L1.75,5.25L1,3.75L1,3L0.5,3L0.5,0.75L0,0Z" style="fill:rgb(248,246,246);fill-rule:nonzero;"/>
            </g>
            <g transform="matrix(1,0,0,1,119.75,69.25)">
                <path d="M0,0L0.5,0.5L0,1.5L-0.5,1.75L-0.75,2.75L-1.25,2.75L-1.75,3.75L-2.25,3.75L-2.75,5L-4,6L-4.5,7L-5,7L-5.25,5L-3.75,3L-0.75,0.25L0,0Z" style="fill:rgb(54,60,76);fill-rule:nonzero;"/>
            </g>
            <g transform="matrix(1,0,0,1,193.25,151.25)">
                <path d="M0,0L3,0L2.75,0.5L-0.75,0.75L-3,1.5L-6,1.75L-6.75,2.5L-7.25,3.75L-7.75,3.75L-7.75,5L-8.25,6.25L-9,6.25L-8,2L-7.5,1L-5.75,0.75L-5.75,0.25L-2.5,0.25L0,0Z" style="fill:rgb(219,63,39);fill-rule:nonzero;"/>
            </g>
            <g transform="matrix(1,0,0,1,75,89.5)">
                <path d="M0,0L1.25,0.25L1.5,3L1.75,3.25L1.75,5.25L1.25,5.25L1,6L1,5.25L-1,5.5L-1,1.25L0,0Z" style="fill:rgb(247,246,246);fill-rule:nonzero;"/>
            </g>
            <g transform="matrix(1,0,0,1,126,58.75)">
                <path d="M0,0L2.5,0.25L3.75,1.5L4.25,2.25L4.25,5.25L3.75,5L3.5,4L2.25,2.75L0.5,1.75L0,2L-1.5,2L-1.25,0.75L0,0Z" style="fill:rgb(223,222,221);fill-rule:nonzero;"/>
            </g>
            <g transform="matrix(1,0,0,1,151.25,217.25)">
                <path d="M-1.25,0.75L-0.5,0.75L-0.5,1.25L-5,3.25L-13.25,6L-17.25,7L-18.5,7L-18.5,6.25L-15.75,5.75L-14.5,5.75L-14.25,5.25L-12.75,4.75L-9.25,4L-7.5,3.25L-6.25,3.25L-6.25,2.75L-5.25,2.5L-2.25,1.25L-1.25,0.75Z" style="fill:rgb(226,72,49);fill-rule:nonzero;"/>
            </g>
            <g transform="matrix(1,0,0,1,137,80.5)">
                <path d="M0,0L4.5,0L4.5,0.25L2.75,0.25L2.5,1.5L2,3L0.5,3.75L-0.75,3.75L-1,3.5L-0.75,1L0,0Z" style="fill:rgb(6,119,54);fill-rule:nonzero;"/>
            </g>
            <g transform="matrix(1,0,0,1,105.5,59.25)">
                <path d="M0,0L0.5,0.25L0.5,0.75L1.25,1L3.25,3.5L3.5,5L4.5,5.5L6,8L5.75,9L3.5,6.5L0.5,2.25L-0.25,0.75L0,0Z" style="fill:rgb(249,248,248);fill-rule:nonzero;"/>
            </g>
            <g transform="matrix(1,0,0,1,103,208.5)">
                <path d="M0,0L4,0L11,0.25L12.75,0.25L12.25,0.5L12.25,1L14,1L13.5,1.5L9.75,1.5L7.25,1.25L5.5,1.25L2.25,0.75L-0.25,0.5L0,0Z" style="fill:rgb(219,59,39);fill-rule:nonzero;"/>
            </g>
            <g transform="matrix(1,0,0,1,99.25,97.75)">
                <path d="M0,0L0.5,0.5L1,0.25L1.5,1.75L1.5,5.75L0.75,6L0,6L-0.5,6.5L-0.75,6L-0.5,2.25L0,0Z" style="fill:rgb(225,224,223);fill-rule:nonzero;"/>
            </g>
            <g transform="matrix(1,0,0,1,115.25,65.5)">
                <path d="M0,0L2.25,0.75L4.75,2.5L5.75,4.75L4.5,6L3.75,6.5L4,5.25L4.5,5.25L4.75,4L3.25,4.25L2.75,2.5L2.25,2.5L2.25,2L1,1.75L-0.5,1L0,0.75L0,0Z" style="fill:rgb(238,233,234);fill-rule:nonzero;"/>
            </g>
            <g transform="matrix(1,0,0,1,132.5,92.75)">
                <path d="M0,0L0.75,0L0.75,1.75L1.25,1.75L2.25,3.75L3,4L3.75,3.25L4,1.5L4.5,1.75L4.5,4L4.25,5.75L2.25,5.5L1.25,4.5L1.25,4L0.25,4L0,2.25L0,0Z" style="fill:rgb(222,223,221);fill-rule:nonzero;"/>
            </g>
            <g transform="matrix(1,0,0,1,171.5,92)">
                <path d="M0,0L1.5,1.25L4.25,5.75L6,8.75L6,10L5.25,9.75L4,7.5L2,4.25L0,0.75L0,0Z" style="fill:rgb(219,62,40);fill-rule:nonzero;"/>
            </g>
            <g transform="matrix(1,0,0,1,91.75,86.25)">
                <path d="M0,0L0.75,0L0.25,1.5L-1.25,4L-2.75,6L-4,7.5L-5.5,7.75L-4,5.5L-1.5,2L0,0Z" style="fill:rgb(6,6,11);fill-rule:nonzero;"/>
            </g>
            <g transform="matrix(1,0,0,1,66.25,105)">
                <path d="M0,0L0.5,1L0.75,2L2.75,2.5L4.75,2.5L6,2L5.75,2.75L4.5,4L3,3.75L1,2.75L-2,2.75L-2.25,2L-1.5,0.75L0,0Z" style="fill:rgb(250,250,250);fill-rule:nonzero;"/>
            </g>
            <g transform="matrix(1,0,0,1,135.5,103.75)">
                <path d="M0,0L6,0L6.5,0.25L6.5,1L4.5,1.5L-0.25,1.5L-0.5,0.75L0,0Z" style="fill:rgb(6,102,48);fill-rule:nonzero;"/>
            </g>
            <g transform="matrix(1,0,0,1,113.75,50.75)">
                <path d="M0,0L0.75,0.25L-0.25,2.25L-2,5L-3.5,7.75L-4.5,7.75L-3.75,5.5L-1,1L0,0Z" style="fill:rgb(7,8,13);fill-rule:nonzero;"/>
            </g>
            <g transform="matrix(1,0,0,1,68,100.75)">
                <path d="M0,0L1.25,0.25L1.75,0.5L4.75,0.75L3.75,1.25L3.5,2L1.5,2.25L-0.75,2.25L-1,3L-1.5,3L-1.75,4L-2.5,4.25L-2,3L0,0Z" style="fill:rgb(235,229,229);fill-rule:nonzero;"/>
            </g>
            <g transform="matrix(1,0,0,1,80.25,105)">
                <path d="M0,0L0.75,0.25L0,1.75L-7,2L-8,1.5L-7.75,1L-1.5,0.5L0,0Z" style="fill:rgb(226,225,223);fill-rule:nonzero;"/>
            </g>
            <g transform="matrix(1,0,0,1,30,174.5)">
                <path d="M0,0L3.75,0L2.75,0.5L0,0.75L0,1.25L0.5,1.25L1,2.75L1.25,4.25L2.25,4.75L2.25,6L1,4.75L-0.25,2.75L-1,2.75L-2,1L-1.75,0.25L0,0Z" style="fill:rgb(217,65,38);fill-rule:nonzero;"/>
            </g>
            <g transform="matrix(1,0,0,1,133,74.25)">
                <path d="M0,0L1.25,1.25L2.75,3.75L3.5,6.25L4,6.5L3.25,8.25L3,10L3.5,11.5L3,11.5L3,12.75L2.75,12.75L2.5,11L1.75,10.25L2,8.75L2.25,8.25L2.25,4.5L0.75,1.5L0,0.5L0,0Z" style="fill:rgb(10,16,21);fill-rule:nonzero;"/>
            </g>
            <g transform="matrix(1,0,0,1,113.75,75)">
                <path d="M0,0L0.75,0.75L0.75,2.75L-0.75,5.5L-1.5,8.75L-2.25,10L-2.75,9.25L-1.5,5L-0.75,2.75L-0.25,0.25L0,0Z" style="fill:rgb(3,2,4);fill-rule:nonzero;"/>
            </g>
            <g transform="matrix(1,0,0,1,195.75,174.75)">
                <path d="M0,0L0.25,0.75L-2.75,6.25L-4.75,9.5L-5,9L-5.5,9L-3.75,5.5L-3.25,5.25L-2.5,3.75L-1.5,1.5L0,0Z" style="fill:rgb(223,66,44);fill-rule:nonzero;"/>
            </g>
            <g transform="matrix(1,0,0,1,151.75,92.75)">
                <path d="M0,0L1,0.5L1.25,1.25L1.25,4.25L1,8.75L0.75,8.75L0.75,2.25L-0.75,2.25L-2.5,3.25L-3.75,3.5L-3.25,2.5L-3,2.25L-3.25,0.75L-2.5,0.5L-1.75,1.5L-0.25,1.25L0,0Z" style="fill:rgb(19,18,29);fill-rule:nonzero;"/>
            </g>
            <g transform="matrix(1,0,0,1,97.75,81)">
                <path d="M0,0L1.75,1L2.75,3L3.5,3.75L3.25,4.5L2,4.25L1.5,3.25L0.25,2.25L-1.75,2L-2.25,1.75L0,0Z" style="fill:rgb(9,23,23);fill-rule:nonzero;"/>
            </g>
            <g transform="matrix(1,0,0,1,197.75,169.5)">
                <path d="M0,0L0.25,1L0.75,0.5L0.5,1.75L-2,7.25L-2.75,8L-2.5,7L-2,5.5L-3,6.5L-3.25,6L-2.5,4.75L-2,4.75L-1.75,3L-0.75,0.75L0,0Z" style="fill:rgb(218,55,36);fill-rule:nonzero;"/>
            </g>
            <g transform="matrix(1,0,0,1,130,72)">
                <path d="M0,0L0.75,0L0.25,1.5L-1.25,3.75L-1.5,4.5L-2.5,5L-3.75,5.25L-5,5L-4.5,4.75L-4,3.75L-2,2.5L0,0Z" style="fill:rgb(78,82,96);fill-rule:nonzero;"/>
            </g>
            <g transform="matrix(1,0,0,1,104.25,72.5)">
                <path d="M0,0L0.5,0.25L0.5,1.75L1.75,1.25L2.25,1L2,4.5L1.5,3.5L0.5,3.5L0.5,4L-0.75,4.5L-0.75,3.75L-1.25,3.75L-1,2.75L0,1.75L-1.5,1L-0.5,0.5L0,0Z" style="fill:rgb(222,222,220);fill-rule:nonzero;"/>
            </g>
            <g transform="matrix(1,0,0,1,142.5,202.5)">
                <path d="M0,0L0.75,0.25L0.25,0.75L-1.5,1.5L-3.75,2.5L-4.75,2.5L-4.75,3L-7.75,3.75L-9,4.25L-10.25,4.25L-9.25,3.25L-3.25,1.25L0,0Z" style="fill:rgb(218,55,36);fill-rule:nonzero;"/>
            </g>
            <g transform="matrix(1,0,0,1,51.25,203)">
                <path d="M0,0L1.25,0L1.25,0.5L1.75,0.5L2.75,1.5L2.75,2L3.75,2.25L4.75,2.75L5.75,3.75L5.5,4L6.25,4.25L6.5,5.25L7.25,5.25L7.5,6.25L5.5,5L1.75,2L0,0.5L0,0Z" style="fill:rgb(218,55,36);fill-rule:nonzero;"/>
            </g>
            <g transform="matrix(1,0,0,1,203.75,149.5)">
                <path d="M0,0L0.75,0L0.5,2L0,5.75L-0.25,6.5L-1,6.5L-1.25,4.5L-1,3.75L-1,1.25L-0.75,0.75L-0.25,0.75L0,0Z" style="fill:rgb(221,63,43);fill-rule:nonzero;"/>
            </g>
            <g transform="matrix(1,0,0,1,109,59.75)">
                <path d="M0,0L1,0.5L3.25,2.5L4.5,4.25L4.25,5L3.5,4.5L2,4L2,3.25L1.5,3.25L1.5,2.75L1,2.75L0.5,1.5L0.5,0.75L0,0.75L0,0Z" style="fill:rgb(232,227,227);fill-rule:nonzero;"/>
            </g>
            <g transform="matrix(1,0,0,1,150.25,103)">
                <path d="M0,0L0.25,0L0,1.75L-0.25,3L-1.75,2.5L-2.5,2L-4.25,1.75L-4.25,1L-1.75,0.5L-0.25,0.5L0,0Z" style="fill:rgb(6,96,45);fill-rule:nonzero;"/>
            </g>
            <g transform="matrix(1,0,0,1,114.25,46.5)">
                <path d="M0,0L1.25,0.25L2.5,1.5L2.5,2L3,2L2.75,3L0.5,3L0,2.25L0,1.25L-0.5,1L0,1L0,0Z" style="fill:rgb(229,227,227);fill-rule:nonzero;"/>
            </g>
            <g transform="matrix(1,0,0,1,133.75,99)">
                <path d="M0,0L0.75,0.5L1.75,0.25L2.25,0.5L2.5,0L2.25,2.25L1.25,4.75L0.75,4.75L0.25,1.25L0,0Z" style="fill:rgb(247,246,246);fill-rule:nonzero;"/>
            </g>
            <g transform="matrix(1,0,0,1,123.25,63.5)">
                <path d="M0,0L0.5,0L0.5,0.5L1.25,0.5L1.25,1.5L2,1.75L2.5,2.5L4.25,2.75L4,3.25L0.25,3.25L-0.25,2.25L0,0Z" style="fill:rgb(223,223,221);fill-rule:nonzero;"/>
            </g>
            <g transform="matrix(1,0,0,1,107.5,53.25)">
                <path d="M0,0L0.5,0L0.75,1L-1.5,4L-2.25,5.5L-3.5,5.75L-3,4.25L-1.25,1.5L0,0Z" style="fill:rgb(12,11,17);fill-rule:nonzero;"/>
            </g>
            <g transform="matrix(1,0,0,1,47.25,172.25)">
                <path d="M0,0L1.25,0.25L2.5,1.75L3.75,3.75L3.75,5.25L2.5,4L1.25,2L1.25,1.5L-0.25,1.25L-0.75,1L-0.75,0.5L0,0.5L0,0Z" style="fill:rgb(220,62,41);fill-rule:nonzero;"/>
            </g>
            <g transform="matrix(1,0,0,1,122.25,69.75)">
                <path d="M0,0L0,0.75L-1,2.25L-1.25,4.25L-0.5,4.5L-0.25,5.25L1.25,5.75L1.75,6L1.75,6.5L-0.5,6.5L-1.75,5L-2.25,3L-0.5,0.5L0,0Z" style="fill:rgb(243,242,242);fill-rule:nonzero;"/>
            </g>
            <g transform="matrix(1,0,0,1,137.5,221.5)">
                <path d="M0,0L0.5,0.25L0.25,1L-0.5,1L-0.75,1.75L-2.5,1.75L-4.75,2L-4.5,3L-5,3L-5.5,2.5L-7.25,2.75L-7.5,2L-5,1.5L-2.25,0.75L-1.75,0.5L0,0.5L0,0Z" style="fill:rgb(217,54,35);fill-rule:nonzero;"/>
            </g>
            <g transform="matrix(1,0,0,1,128,59.25)">
                <path d="M0,0L1.25,0.25L2.25,1.75L2.25,4.75L1.75,4.5L1.5,3.5L0.75,2.75L0.25,1.75L0.25,1L-0.5,1L0,0Z" style="fill:rgb(237,232,232);fill-rule:nonzero;"/>
            </g>
            <g transform="matrix(1,0,0,1,126.5,61.5)">
                <path d="M0,0L1.25,0.75L2.25,2.5L1.5,3.25L0.25,3.25L0.25,2.5L-0.5,2.25L-0.75,1.25L0,0Z" style="fill:rgb(223,224,222);fill-rule:nonzero;"/>
            </g>
            <g transform="matrix(1,0,0,1,60.75,209.75)">
                <path d="M0,0L1,0.75L1,1.25L2,1.5L3.75,2.25L5,2.75L5.25,3L6.5,3.75L7.25,4.75L5.75,4.5L5.25,4L3.5,3.25L-0.5,0.75L-0.75,0.25L0,0Z" style="fill:rgb(217,54,35);fill-rule:nonzero;"/>
            </g>
            <g transform="matrix(1,0,0,1,80.75,94.75)">
                <path d="M0,0L0.5,1L1.25,2L3.5,2L4,0.75L4.25,1.5L2.75,3.75L1.5,3.25L-0.75,1.5L-0.25,0.25L0,0Z" style="fill:rgb(246,246,245);fill-rule:nonzero;"/>
            </g>
            <g transform="matrix(1,0,0,1,96.75,72.5)">
                <path d="M0,0L0.5,0L-0.5,4L-1.25,4.25L-1.5,4L-2.25,6L-2.5,5L-1.75,2.5L-0.5,0.5L0,0Z" style="fill:rgb(243,242,242);fill-rule:nonzero;"/>
            </g>
            <g transform="matrix(1,0,0,1,143,82.25)">
                <path d="M0,0L1.75,0.75L2,1L2,9.25L1.75,9.25L1.5,3.75L0.75,2.5L0,1L0,0Z" style="fill:rgb(9,8,13);fill-rule:nonzero;"/>
            </g>
            <g transform="matrix(1,0,0,1,108.75,63)">
                <path d="M0,0L1.25,1.25L2.5,2L3.5,4.5L4.5,6.25L3.5,6.5L2.75,5.5L2,3.25L0.75,1.5L0.25,1.25L0,0Z" style="fill:rgb(236,230,231);fill-rule:nonzero;"/>
            </g>
            <g transform="matrix(1,0,0,1,151,101.5)">
                <path d="M0,0L1,0.25L1.25,1L1.25,3L1,3.25L-0.75,3.25L-0.5,0.5L0,0Z" style="fill:rgb(249,249,249);fill-rule:nonzero;"/>
            </g>
            <g transform="matrix(1,0,0,1,104,99.25)">
                <path d="M0,0L0.25,0.75L-0.75,2.75L-2.5,5.75L-3.5,6.25L-3,4.75L-1.75,2.25L-1.5,1.25L0,0Z" style="fill:rgb(7,5,9);fill-rule:nonzero;"/>
            </g>
            <g transform="matrix(1,0,0,1,151.25,217.25)">
                <path d="M-1.25,0.75L-0.5,0.75L-0.5,1.25L-5,3.25L-8.75,4.5L-9.25,4.25L-7.5,3.25L-6.25,3.25L-6.25,2.75L-5.25,2.5L-2.25,1.25L-1.25,0.75Z" style="fill:rgb(226,72,49);fill-rule:nonzero;"/>
            </g>
            <g transform="matrix(1,0,0,1,85.25,95.5)">
                <path d="M0,0L0.25,0.5L-1.25,3.5L-1.5,4.25L-2.5,3.75L-4.75,2L-5.5,0.75L-4.5,1L-2.25,2.75L-1.5,2.5L0,0Z" style="fill:rgb(23,14,20);fill-rule:nonzero;"/>
            </g>
            <g transform="matrix(1,0,0,1,141.75,82.25)">
                <path d="M0,0L0.5,1L0.25,1.75L1.5,2L1.5,2.5L-0.75,3.25L-2,3.5L-2.5,2.75L-1,2.25L-1.25,0.5L0,0Z" style="fill:rgb(12,21,27);fill-rule:nonzero;"/>
            </g>
            <g transform="matrix(1,0,0,1,139,80.5)">
                <path d="M0,0L2.5,0L2.5,0.25L0.75,0.25L0.5,1.5L0,3L-1.5,3.75L-2.75,3.75L-2.75,3.25L-2,3.25L-2,2.75L-0.75,1.5L0,0Z" style="fill:rgb(7,12,15);fill-rule:nonzero;"/>
            </g>
            <g transform="matrix(1,0,0,1,155.25,195.25)">
                <path d="M0,0L0.75,0.25L-2.25,2.75L-3.25,2.75L-3.25,3.25L-6.5,5L-7.5,4.75L-4.75,3.25L-1.5,1.25L0,0Z" style="fill:rgb(218,55,36);fill-rule:nonzero;"/>
            </g>
            <g transform="matrix(1,0,0,1,81,104.75)">
                <path d="M0,0L0.25,0L0.25,2.25L0,2.5L-8.25,2.5L-8.25,2.25L-0.75,1.75L0,0Z" style="fill:rgb(243,242,242);fill-rule:nonzero;"/>
            </g>
            <g transform="matrix(1,0,0,1,110.75,49.75)">
                <path d="M0,0L0.5,0.25L0.5,1.25L-2.5,4.25L-3,3.25L0,0Z" style="fill:rgb(14,15,24);fill-rule:nonzero;"/>
            </g>
            <g transform="matrix(1,0,0,1,180.25,165.75)">
                <path d="M0,0L0.25,0.75L-0.5,2L-1.25,3.75L-4,8.5L-5.25,10.25L-5.25,9.5L-2,3.75L0,0Z" style="fill:rgb(206,36,26);fill-rule:nonzero;"/>
            </g>
            <g transform="matrix(1,0,0,1,76.5,95)">
                <path d="M0,0L0.5,0L0.75,1.5L2,1.5L0.5,3.25L-1.75,5L-2.5,4.75L-1.5,3.5L0,2.5L0.25,1.25L0,0Z" style="fill:rgb(7,8,14);fill-rule:nonzero;"/>
            </g>
            <g transform="matrix(1,0,0,1,141.25,85)">
                <path d="M0,0L1.75,0L1,0.75L0.25,0.75L0,1.75L-0.75,2.25L-2,2L-2.25,1.75L-2.25,0.5L-1.5,0.5L-0.25,0.25L0,0Z" style="fill:rgb(227,224,223);fill-rule:nonzero;"/>
            </g>
            <g transform="matrix(1,0,0,1,104.5,82.5)">
                <path d="M0,0L0.75,0.25L0.75,2.75L0,5L-0.25,4L0,2.75L-1.25,2.5L-0.25,0.25L0,0Z" style="fill:rgb(7,8,13);fill-rule:nonzero;"/>
            </g>
            <g transform="matrix(1,0,0,1,123.5,67.75)">
                <path d="M0,0L0.5,0.25L0.5,1.25L-0.25,3.5L-0.75,3.5L-1.25,5L-1.75,4L-1.5,2.75L-0.75,1L0,0Z" style="fill:rgb(223,223,221);fill-rule:nonzero;"/>
            </g>
            <g transform="matrix(1,0,0,1,142.25,101.75)">
                <path d="M0,0L0.25,0L0.5,1.5L1.75,1.75L3,1.25L3.25,2.75L3,3L0,3L0,0Z" style="fill:rgb(247,247,247);fill-rule:nonzero;"/>
            </g>
            <g transform="matrix(1,0,0,1,184,157.75)">
                <path d="M0,0L0.5,0.5L0.25,2.25L-0.5,2.5L-0.5,3.75L-0.25,4.25L-0.75,5.25L-2.25,6.25L-2,5L-1.5,4.75L-1.25,3.25L0,0Z" style="fill:rgb(221,62,41);fill-rule:nonzero;"/>
            </g>
            <g transform="matrix(1,0,0,1,141.75,94.75)">
                <path d="M0,0L0.5,0.5L1,0.25L1.25,1L1,1.25L1.25,3.5L1.5,3.75L1.5,5.75L0.5,4.75L0,2.25L0,0Z" style="fill:rgb(220,213,214);fill-rule:nonzero;"/>
            </g>
            <g transform="matrix(1,0,0,1,135,81)">
                <path d="M0,0L0.25,0L0.25,2L0,3.5L0.5,4L0.5,7L0.25,7L0,5.5L-1,4.5L-1,3L-0.25,1.25L0,0Z" style="fill:rgb(229,226,226);fill-rule:nonzero;"/>
            </g>
            <g transform="matrix(1,0,0,1,187.25,152.25)">
                <path d="M-0.5,0.25L0,0.25L-1.25,2.75L-1.75,2.75L-1.75,4L-2.25,5.25L-3,5.25L-2,1L-1.5,1L-1.25,0.5L-0.5,0.25Z" style="fill:rgb(217,54,35);fill-rule:nonzero;"/>
            </g>
            <g transform="matrix(1,0,0,1,123.25,91.5)">
                <path d="M0,0L0.5,0L0.25,1.25L-2.25,5.75L-2.75,5.75L-2.5,4.25L-0.5,0.75L0,0Z" style="fill:rgb(236,235,234);fill-rule:nonzero;"/>
            </g>
            <g transform="matrix(1,0,0,1,90.75,82.25)">
                <path d="M0,0L0.5,0.25L-1.75,2.75L-2.25,3.25L-2.75,3.25L-4.25,5.25L-4.5,4.75L-1.75,1.25L-1,0.25L0,0Z" style="fill:rgb(18,23,36);fill-rule:nonzero;"/>
            </g>
            <g transform="matrix(1,0,0,1,144.25,96)">
                <path d="M0,0L0.5,0.75L0.75,1.25L0.75,5.25L0.25,5.25L0,3.5L-0.5,3L-0.5,1.25L0,0Z" style="fill:rgb(235,229,229);fill-rule:nonzero;"/>
            </g>
            <g transform="matrix(1,0,0,1,151.75,92.75)">
                <path d="M0,0L1,0.5L1.25,1.25L1.25,4.25L1,8.75L0.75,8.75L0.5,2L-0.25,0.75L0,0Z" style="fill:rgb(11,13,21);fill-rule:nonzero;"/>
            </g>
            <g transform="matrix(1,0,0,1,106.25,81.25)">
                <path d="M0,0L0.75,0L1.25,1L2.5,2L2.75,2.75L3.5,3.5L3.5,4L4,4L3.75,4.5L2,3L0.75,1.5L-0.5,1L-2,0.75L-2,0.5L0,0.5L0,0Z" style="fill:rgb(53,31,25);fill-rule:nonzero;"/>
            </g>
            <g transform="matrix(1,0,0,1,111.75,208.75)">
                <path d="M0,0L4,0L3.5,0.25L3.5,0.75L5.25,0.75L4.75,1.25L1,1.25L-0.25,0.75L0,0Z" style="fill:rgb(218,55,36);fill-rule:nonzero;"/>
            </g>
            <g transform="matrix(1,0,0,1,75.25,198.75)">
                <path d="M0,0L4.75,2.25L5.75,3L5.5,3.5L4,3L0,0.75L0,0Z" style="fill:rgb(222,63,42);fill-rule:nonzero;"/>
            </g>
            <g transform="matrix(1,0,0,1,29.75,175.25)">
                <path d="M0,0L0.25,0.5L0.75,0.5L1.25,2L1.5,3.5L2.5,4L2.5,5.25L1.25,4L-0.25,1.5L-0.25,0.25L0,0Z" style="fill:rgb(216,53,35);fill-rule:nonzero;"/>
            </g>
            <g transform="matrix(1,0,0,1,127,86.5)">
                <path d="M0,0L0.25,0.5L-2.25,4.25L-3.25,5.5L-3.5,4.5L-0.75,0.5L0,0Z" style="fill:rgb(231,230,229);fill-rule:nonzero;"/>
            </g>
            <g transform="matrix(1,0,0,1,115,71.25)">
                <path d="M0,0L1.25,0L1.25,1L-0.75,3.5L-1,2.5L-1,1.25L-0.25,0.25L0,0Z" style="fill:rgb(231,227,227);fill-rule:nonzero;"/>
            </g>
            <g transform="matrix(1,0,0,1,130,72)">
                <path d="M0,0L0.75,0L0.25,1.5L-1.25,3.5L-2.5,3.5L-2,2.5L0,0Z" style="fill:rgb(14,17,28);fill-rule:nonzero;"/>
            </g>
            <g transform="matrix(1,0,0,1,129.25,66.5)">
                <path d="M0,0L1,0L0.75,1.25L-0.25,3.25L-1,2.25L-1.25,0.75L0,0Z" style="fill:rgb(233,227,228);fill-rule:nonzero;"/>
            </g>
            <g transform="matrix(1,0,0,1,68,100.75)">
                <path d="M0,0L1.25,0.25L2,1L-0.25,1.75L-1,3L-1.5,3L-1.75,4L-2.5,4.25L-2,3L0,0Z" style="fill:rgb(242,241,241);fill-rule:nonzero;"/>
            </g>
            <g transform="matrix(1,0,0,1,131.5,73)">
                <path d="M0,0L0.5,0L0.75,0.75L0.25,0.75L-0.25,2L-1.5,3.75L-2.5,3.75L-2.25,2.75L-0.5,0.5L0,0.5L0,0Z" style="fill:rgb(13,16,26);fill-rule:nonzero;"/>
            </g>
            <g transform="matrix(1,0,0,1,83,90.75)">
                <path d="M0,0L0.75,0L0.5,1L-2,3.75L-2.75,4.5L-3,4L-3,3L-1.5,2L0,0Z" style="fill:rgb(12,15,24);fill-rule:nonzero;"/>
            </g>
            <g transform="matrix(1,0,0,1,113,62.75)">
                <path d="M0,0L1.25,1.25L2.5,2L4.25,2.5L4,3.25L2.25,2.75L2,3.25L0.75,2L0,1L0,0Z" style="fill:rgb(26,14,20);fill-rule:nonzero;"/>
            </g>
            <g transform="matrix(1,0,0,1,79.25,96)">
                <path d="M0,0L0.5,0.25L0.5,2L-1.25,2L-3,3.25L-3,2.5L-0.5,0.25L0,0Z" style="fill:rgb(236,231,232);fill-rule:nonzero;"/>
            </g>
            <g transform="matrix(1,0,0,1,102.25,95)">
                <path d="M0,0L0.25,0L0.25,6.5L0,6.5L-0.25,4.25L-0.5,3.75L-1.25,3.5L-1,1.75L0,2L0,0Z" style="fill:rgb(232,226,227);fill-rule:nonzero;"/>
            </g>
            <g transform="matrix(1,0,0,1,129.5,81.25)">
                <path d="M0,0L1.5,0.25L1.75,0.5L1.75,3.75L0.5,3.25L1,2.25L-0.25,0.25L0,0Z" style="fill:rgb(11,13,21);fill-rule:nonzero;"/>
            </g>
            <g transform="matrix(1,0,0,1,130.75,72.25)">
                <path d="M0,0L0.75,0.5L0.75,1.25L-0.5,2.5L-2,4.5L-2.25,3.5L0,0Z" style="fill:rgb(222,220,219);fill-rule:nonzero;"/>
            </g>
            <g transform="matrix(1,0,0,1,117.25,49)">
                <path d="M0,0L0.5,0L0.75,0.75L-1,2.25L-3.5,3.25L-2.75,1.75L-1,1L0,0Z" style="fill:rgb(18,23,37);fill-rule:nonzero;"/>
            </g>
            <g transform="matrix(1,0,0,1,32.5,180.75)">
                <path d="M0,0L1.25,0.5L2.25,2.75L3.25,4.25L2.75,4.75L2,4L1.25,2.75L0,0.75L0,0Z" style="fill:rgb(217,54,35);fill-rule:nonzero;"/>
            </g>
            <g transform="matrix(1,0,0,1,196.75,172.75)">
                <path d="M0,0L0.25,0L0,2L-1.5,4.75L-1.75,4L-1,2.75L-1.25,2.5L-2,3.25L-2.25,2.75L-1.5,1.5L0,0Z" style="fill:rgb(216,53,36);fill-rule:nonzero;"/>
            </g>
            <g transform="matrix(1,0,0,1,129.5,70.75)">
                <path d="M0,0L0.75,0.75L0.25,1.75L-1.5,4L-2.5,4.5L-2.5,4L-1.5,3.25L-0.75,1L-0.5,0.5L0,0.5L0,0Z" style="fill:rgb(225,224,223);fill-rule:nonzero;"/>
            </g>
            <g transform="matrix(1,0,0,1,38.5,189.75)">
                <path d="M0,0L1.25,0.5L3.25,3L3,4L1.75,2.75L0,0.5L0,0Z" style="fill:rgb(217,53,35);fill-rule:nonzero;"/>
            </g>
            <g transform="matrix(1,0,0,1,130,77.25)">
                <path d="M0,0L0.25,0.75L0.5,2.25L0.75,2.5L0.75,4L-0.75,4L-0.5,1L0,0Z" style="fill:rgb(239,235,235);fill-rule:nonzero;"/>
            </g>
            <g transform="matrix(1,0,0,1,114.5,46)">
                <path d="M0,0L1.25,0L3.25,1.75L3.5,3.5L3.25,3L2.75,3L2.75,2.5L2.25,2.5L1.75,1.5L0,0.25L0,0Z" style="fill:rgb(10,12,19);fill-rule:nonzero;"/>
            </g>
            <g transform="matrix(1,0,0,1,193,180)">
                <path d="M0,0L0.25,0.5L-2,4.25L-2.25,3.75L-2.75,3.75L-1.5,1.25L0,0Z" style="fill:rgb(222,64,43);fill-rule:nonzero;"/>
            </g>
            <g transform="matrix(1,0,0,1,72,107)">
                <path d="M0,0L0,0.75L-1.25,2L-2.75,1.75L-4,0.75L-3,0.5L-1,0.5L0,0Z" style="fill:rgb(245,244,244);fill-rule:nonzero;"/>
            </g>
            <g transform="matrix(1,0,0,1,131.75,64)">
                <path d="M0,0L1,0L0.5,1.25L-1,2.25L-1.75,2L-1.25,0.75L0,0Z" style="fill:rgb(247,247,247);fill-rule:nonzero;"/>
            </g>
            <g transform="matrix(1,0,0,1,132,78)">
                <path d="M0,0L1.25,0.25L1.5,1L0.75,2.75L-0.25,2.25L-0.25,0.25L0,0Z" style="fill:rgb(223,224,222);fill-rule:nonzero;"/>
            </g>
            <g transform="matrix(1,0,0,1,99.75,100.75)">
                <path d="M0,0L0.25,0L0.25,2.5L0.75,2.5L1,1.5L1,2.75L0.25,3L-0.5,3L-1,3.5L-1.25,3L-1.25,1.5L-0.75,1L-0.5,1.5L0,0Z" style="fill:rgb(236,230,231);fill-rule:nonzero;"/>
            </g>
            <g transform="matrix(1,0,0,1,121.5,71.25)">
                <path d="M0,0L0.5,0.5L0.75,3.25L1,4L0.25,3.75L0.25,3L-0.5,3.25L-0.75,2L-0.25,0.25L0,0Z" style="fill:rgb(235,228,229);fill-rule:nonzero;"/>
            </g>
            <g transform="matrix(1,0,0,1,111.25,55.25)">
                <path d="M0,0L0.5,0L0,1.5L-1.25,3.5L-2,3.25L-1.25,1L-0.75,1L0,0Z" style="fill:rgb(18,23,38);fill-rule:nonzero;"/>
            </g>
            <g transform="matrix(1,0,0,1,72.75,98)">
                <path d="M0,0L1.5,0.25L1.75,1.25L0.5,2.25L-0.25,2.25L-0.5,1.25L0,0Z" style="fill:rgb(247,246,246);fill-rule:nonzero;"/>
            </g>
            <g transform="matrix(1,0,0,1,175.75,169.75)">
                <path d="M0,0L0.25,0.75L-0.75,2.25L-1.5,2.25L-3.75,4.5L-3.75,3.75L-2,2L-0.75,0.5L0,0Z" style="fill:rgb(207,57,26);fill-rule:nonzero;"/>
            </g>
            <g transform="matrix(1,0,0,1,82.25,99)">
                <path d="M0,0L1,0.5L1.5,1.5L1,3L0.5,3L0,1.75L-0.25,0.5L0,0Z" style="fill:rgb(234,229,230);fill-rule:nonzero;"/>
            </g>
            <g transform="matrix(1,0,0,1,114.5,49.25)">
                <path d="M0,0L1.75,0L1.75,1L0,1.75L-1,1.25L-0.25,0.25L0,0Z" style="fill:rgb(243,241,241);fill-rule:nonzero;"/>
            </g>
            <g transform="matrix(1,0,0,1,98.75,75.5)">
                <path d="M0,0L0.5,0L0.5,1.75L0,2.75L-0.75,3.25L-1,2L-0.5,0.75L0,0Z" style="fill:rgb(222,222,221);fill-rule:nonzero;"/>
            </g>
            <g transform="matrix(1,0,0,1,138,200.5)">
                <path d="M0,0L0.5,0.25L0.25,0.75L1,1L-2.5,2.25L-3.5,2L-2,1.25L-1.5,0.25L-1,0.5L0,0Z" style="fill:rgb(206,45,26);fill-rule:nonzero;"/>
            </g>
            <g transform="matrix(1,0,0,1,160.75,191.25)">
                <path d="M0,0L0.5,0.25L0.25,1.25L-0.75,1.25L-0.75,1.75L-1.75,2.5L-2.75,2.75L-2.75,3.25L-3.5,3L-2.25,2L-1,0.75L0,0Z" style="fill:rgb(218,55,36);fill-rule:nonzero;"/>
            </g>
            <g transform="matrix(1,0,0,1,131.5,89.25)">
                <path d="M0,0L0.5,0.5L1,2.75L1,5.75L0.5,5.75L0.5,2.75L-0.75,2.75L-0.25,2.25L0,0Z" style="fill:rgb(12,16,25);fill-rule:nonzero;"/>
            </g>
            <g transform="matrix(1,0,0,1,111,85.5)">
                <path d="M0,0L0.25,0L0,2.25L-1.25,4.75L-1.75,4.5L-0.75,2L-0.75,0.25L0,0Z" style="fill:rgb(6,7,12);fill-rule:nonzero;"/>
            </g>
            <g transform="matrix(1,0,0,1,118.5,72.25)">
                <path d="M0,0L0,2L-1.5,2.75L-2.75,3L-1.75,1.75L0,0Z" style="fill:rgb(2,1,2);fill-rule:nonzero;"/>
            </g>
            <g transform="matrix(1,0,0,1,132,223.75)">
                <path d="M0,0L0.5,0.25L0.5,0.75L-1.5,1.25L-3.25,1.25L-4,0.75L0,0Z" style="fill:rgb(225,71,48);fill-rule:nonzero;"/>
            </g>
            <g transform="matrix(1,0,0,1,203,150.25)">
                <path d="M0,0L0.5,0L0.75,1.25L0,4.75L-0.5,3.75L-0.25,3L-0.25,0.5L0,0Z" style="fill:rgb(218,55,36);fill-rule:nonzero;"/>
            </g>
            <g transform="matrix(1,0,0,1,113.75,50.75)">
                <path d="M0,0L0.75,0.25L-0.25,2.25L-1,3L-1.5,1.75L0,0Z" style="fill:rgb(10,12,20);fill-rule:nonzero;"/>
            </g>
            <g transform="matrix(1,0,0,1,101,74.25)">
                <path d="M0,0L0.5,0L1.25,2.25L2.5,3.75L1.5,3.25L-0.5,1.5L-0.75,0.5L0,0.5L0,0Z" style="fill:rgb(245,244,243);fill-rule:nonzero;"/>
            </g>
            <g transform="matrix(1,0,0,1,123.25,64.75)">
                <path d="M0,0L1,0.25L1.5,1.75L2.5,2L0.25,2L-0.25,1L0,0Z" style="fill:rgb(234,228,229);fill-rule:nonzero;"/>
            </g>
            <g transform="matrix(1,0,0,1,89,91)">
                <path d="M0,0L0.25,0.75L-0.75,2.25L-2,3L-2.75,2.75L-1.75,1.5L-0.5,1.25L0,0Z" style="fill:rgb(15,19,30);fill-rule:nonzero;"/>
            </g>
            <g transform="matrix(1,0,0,1,133,74.25)">
                <path d="M0,0L1.25,1.25L2.75,3.75L3,5.25L2.5,5.25L1.5,2.75L0,0.5L0,0Z" style="fill:rgb(7,8,13);fill-rule:nonzero;"/>
            </g>
            <g transform="matrix(1,0,0,1,108.75,63)">
                <path d="M0,0L1.25,1.25L2.5,2L3,3L2.75,3.75L2.75,3.25L1.75,3L0.75,1.5L0.25,1.25L0,0Z" style="fill:rgb(228,225,225);fill-rule:nonzero;"/>
            </g>
            <g transform="matrix(1,0,0,1,150.25,97.75)">
                <path d="M0,0L0.75,0.75L0.5,2.5L-0.25,3.25L-0.75,2.5L-0.25,0.25L0,0Z" style="fill:rgb(222,223,221);fill-rule:nonzero;"/>
            </g>
            <g transform="matrix(1,0,0,1,132,206.25)">
                <path d="M0,0L0.5,0.25L-0.25,1L-3.25,1.5L-3,0.75L0,0Z" style="fill:rgb(222,65,43);fill-rule:nonzero;"/>
            </g>
            <g transform="matrix(1,0,0,1,118.25,70.25)">
                <path d="M0,0L0.5,0.25L-3,3.75L-3.5,3.5L-1.25,1L0,0Z" style="fill:rgb(13,16,26);fill-rule:nonzero;"/>
            </g>
            <g transform="matrix(1,0,0,1,120,68.5)">
                <path d="M0,0L0.5,0.25L1,2L-1,3.5L-0.75,2.25L-0.25,2.25L0,1L-0.25,0.5L0,0Z" style="fill:rgb(221,215,216);fill-rule:nonzero;"/>
            </g>
            <g transform="matrix(1,0,0,1,110.25,68.25)">
                <path d="M0,0L1.5,0.25L3,2L2.75,2.5L2.25,2L0.5,1.75L0.5,1L0,0Z" style="fill:rgb(10,12,20);fill-rule:nonzero;"/>
            </g>
            <g transform="matrix(1,0,0,1,114.75,47.5)">
                <path d="M0,0L1.25,0.5L1,1.75L0,2L-0.5,1.25L-0.5,0.25L0,0Z" style="fill:rgb(15,19,31);fill-rule:nonzero;"/>
            </g>
            <g transform="matrix(1,0,0,1,64.5,96)">
                <path d="M0,0L0.25,0.5L0.75,0.5L2.25,2.75L2.5,4L1.25,2.75L0,0.75L0,0Z" style="fill:rgb(218,57,39);fill-rule:nonzero;"/>
            </g>
            <g transform="matrix(1,0,0,1,101.5,87.25)">
                <path d="M0,0L0.75,0.25L0.25,2.5L-0.75,2L-0.5,0.75L0,0Z" style="fill:rgb(220,213,214);fill-rule:nonzero;"/>
            </g>
            <g transform="matrix(1,0,0,1,111.75,64)">
                <path d="M0,0L1.25,0L1.75,0.5L3.5,2L2.75,2.5L1.25,1.25L0,0Z" style="fill:rgb(224,223,222);fill-rule:nonzero;"/>
            </g>
            <g transform="matrix(1,0,0,1,136,223)">
                <path d="M-1,0L0,0.25L0,0.75L-2,1.25L-3.25,1.25L-3.25,0.5L-1,0Z" style="fill:rgb(225,71,48);fill-rule:nonzero;"/>
            </g>
            <g transform="matrix(1,0,0,1,85.25,95.5)">
                <path d="M0,0L0.25,0.5L-1.25,3.5L-1.5,4.25L-2.5,3.75L-2.5,3.25L-1.25,2L0,0Z" style="fill:rgb(7,8,13);fill-rule:nonzero;"/>
            </g>
            <g transform="matrix(1,0,0,1,136.25,89.25)">
                <path d="M0,0L0.25,0L0.5,2L0.75,2.75L1.25,3L0.75,4.25L0.25,4L-0.25,2.5L0,0Z" style="fill:rgb(22,16,24);fill-rule:nonzero;"/>
            </g>
            <g transform="matrix(1,0,0,1,137.5,87)">
                <path d="M0,0L1,0.5L2.25,0.5L2,2.25L0.75,1.25L0,1L0,0Z" style="fill:rgb(18,24,38);fill-rule:nonzero;"/>
            </g>
            <g transform="matrix(1,0,0,1,131.75,73.75)">
                <path d="M0,0L1.25,0.5L1,1.5L0.5,2L-0.5,1.75L0,0Z" style="fill:rgb(234,229,229);fill-rule:nonzero;"/>
            </g>
            <g transform="matrix(1,0,0,1,110.25,58)">
                <path d="M0,0L0.75,0.25L0.75,0.75L7,1L7,1.25L0.25,1.25L-0.25,1L0,0Z" style="fill:rgb(223,219,219);fill-rule:nonzero;"/>
            </g>
            <g transform="matrix(1,0,0,1,105.75,56.5)">
                <path d="M0,0L0.5,0.25L-0.5,2.25L-1.75,2.5L-1.25,1L-0.5,0.25L0,0Z" style="fill:rgb(12,15,24);fill-rule:nonzero;"/>
            </g>
            <g transform="matrix(1,0,0,1,125,225)">
                <path d="M0,0L2.75,0.25L2.75,0.5L0.25,1L-1,1L-1.25,0.5L0,0Z" style="fill:rgb(225,70,47);fill-rule:nonzero;"/>
            </g>
            <g transform="matrix(1,0,0,1,198.25,170)">
                <path d="M0,0L0.25,0.75L-1,3.5L-1.5,2.75L-1.25,1.5L0,0Z" style="fill:rgb(216,55,38);fill-rule:nonzero;"/>
            </g>
            <g transform="matrix(1,0,0,1,76,97.75)">
                <path d="M0,0L1,0.5L-1.25,2.25L-2,2L-1,0.75L0,0Z" style="fill:rgb(13,16,26);fill-rule:nonzero;"/>
            </g>
            <g transform="matrix(1,0,0,1,129.25,82)">
                <path d="M0,0L0.75,0.25L1.5,1.5L1.25,2.25L0.25,2.5L0,0Z" style="fill:rgb(235,230,230);fill-rule:nonzero;"/>
            </g>
            <g transform="matrix(1,0,0,1,118.75,74.25)">
                <path d="M0,0L0.5,0.5L1,0L2.5,2.25L3.25,3L2,3L1.5,1.75L0.5,1.5L0,0.75L0,0Z" style="fill:rgb(193,188,191);fill-rule:nonzero;"/>
            </g>
            <g transform="matrix(1,0,0,1,127.25,67.5)">
                <path d="M0,0L1,0.25L1.75,2L1.75,2.75L0.5,2L0,0.25L0,0Z" style="fill:rgb(222,223,221);fill-rule:nonzero;"/>
            </g>
            <g transform="matrix(1,0,0,1,115.75,208.75)">
                <path d="M0,0L3.5,0L2.5,0.5L1.75,0.75L-0.5,0.75L-0.5,0.25L0,0Z" style="fill:rgb(226,72,49);fill-rule:nonzero;"/>
            </g>
            <g transform="matrix(1,0,0,1,73.75,95.25)">
                <path d="M0,0L0.5,0.25L-1.25,0.75L-1,2.25L-2,1.75L-2.25,0.75L0,0Z" style="fill:rgb(245,243,244);fill-rule:nonzero;"/>
            </g>
            <g transform="matrix(1,0,0,1,144,89.25)">
                <path d="M0,0L0.25,0L0.25,3.25L-0.5,3.5L-1,2.25L-0.25,1.25L0,0Z" style="fill:rgb(235,228,229);fill-rule:nonzero;"/>
            </g>
            <g transform="matrix(1,0,0,1,97.75,81)">
                <path d="M0,0L0.5,0.5L-0.25,1.25L0.5,1.5L-1.75,2L-2.25,1.75L0,0Z" style="fill:rgb(15,22,31);fill-rule:nonzero;"/>
            </g>
            <g transform="matrix(1,0,0,1,108,60)">
                <path d="M0,0L1,0L1,0.5L1.5,0.5L1.75,1.25L0.5,1.5L-0.75,0.75L-0.75,0.25L0,0Z" style="fill:rgb(223,224,222);fill-rule:nonzero;"/>
            </g>
            <g transform="matrix(1,0,0,1,200.75,162.75)">
                <path d="M0,0L0.25,0.75L-0.25,3L-1.25,2.75L-0.5,0.5L0,0Z" style="fill:rgb(224,68,46);fill-rule:nonzero;"/>
            </g>
            <g transform="matrix(1,0,0,1,199,167.5)">
                <path d="M0,0L0.25,0L0.25,1.5L-0.25,2.5L-0.75,2.5L-1,3.25L-1.25,2.5L0,0Z" style="fill:rgb(220,62,42);fill-rule:nonzero;"/>
            </g>
            <g transform="matrix(1,0,0,1,136,86.75)">
                <path d="M0,0L0.5,0.25L0.25,3.75L-0.25,3.75L-0.25,0.25L0,0Z" style="fill:rgb(6,7,11);fill-rule:nonzero;"/>
            </g>
            <g transform="matrix(1,0,0,1,104.25,72.5)">
                <path d="M0,0L0.5,0.25L0.5,2L1.25,2.25L0.25,2.25L-0.25,1.5L-1.5,1L-0.5,0.5L0,0Z" style="fill:rgb(226,224,223);fill-rule:nonzero;"/>
            </g>
            <g transform="matrix(1,0,0,1,129.25,66)">
                <path d="M0,0L0.5,0.25L-0.75,1.25L-2.5,1.5L-2,0.5L0,0Z" style="fill:rgb(11,14,22);fill-rule:nonzero;"/>
            </g>
            <g transform="matrix(1,0,0,1,146.5,200.5)">
                <path d="M0,0L1,0.25L-1.5,1.5L-1.75,1.75L-3,1.75L-2.25,1L0,0Z" style="fill:rgb(218,55,36);fill-rule:nonzero;"/>
            </g>
            <g transform="matrix(1,0,0,1,151.25,198)">
                <path d="M-0.75,0.5L-0.25,0.5L-0.5,1.25L-2.5,2.25L-3.5,2L-0.75,0.5Z" style="fill:rgb(219,57,37);fill-rule:nonzero;"/>
            </g>
            <g transform="matrix(1,0,0,1,42.75,171)">
                <path d="M0,0L1,0.25L1,0.75L0,0.5L-0.5,1.5L-1,2L-1.75,1.75L-0.5,0.25L0,0Z" style="fill:rgb(215,90,57);fill-rule:nonzero;"/>
            </g>
            <g transform="matrix(1,0,0,1,184,157.75)">
                <path d="M0,0L0.5,0.5L0.25,2.25L-0.5,2.5L-0.5,3.75L-0.75,3.75L-0.75,2L0,0Z" style="fill:rgb(220,59,39);fill-rule:nonzero;"/>
            </g>
            <g transform="matrix(1,0,0,1,106.25,81.25)">
                <path d="M0,0L0.75,0L1.5,1.25L1.25,2L0,1.25L-2,0.75L-2,0.5L0,0.5L0,0Z" style="fill:rgb(26,21,27);fill-rule:nonzero;"/>
            </g>
            <g transform="matrix(1,0,0,1,104.25,78.25)">
                <path d="M0,0L1.5,0.5L1.25,1.25L1.75,2L1,2L-0.5,0.25L0,0Z" style="fill:rgb(224,222,221);fill-rule:nonzero;"/>
            </g>
            <g transform="matrix(1,0,0,1,130.25,61.75)">
                <path d="M0,0L0.25,0L0.5,3L0,4.25L0.25,4.75L-0.75,4.5L-0.75,3.25L-0.25,2.25L0,0Z" style="fill:rgb(224,222,221);fill-rule:nonzero;"/>
            </g>
            <g transform="matrix(1,0,0,1,122.75,62.25)">
                <path d="M0,0L0.25,0.75L0.75,0.75L0.5,3.5L0.75,4.5L0,4.25L0,0Z" style="fill:rgb(19,17,27);fill-rule:nonzero;"/>
            </g>
            <g transform="matrix(1,0,0,1,121.75,208.75)">
                <path d="M0,0L0.5,0.5L-3.5,1L-4.25,0.5L-2,0.25L0,0Z" style="fill:rgb(218,55,36);fill-rule:nonzero;"/>
            </g>
            <g transform="matrix(1,0,0,1,103,208.5)">
                <path d="M0,0L3.25,0L2.75,0.75L1,0.75L-0.25,0.5L0,0Z" style="fill:rgb(218,56,37);fill-rule:nonzero;"/>
            </g>
            <g transform="matrix(1,0,0,1,44.5,197)">
                <path d="M0,0L1,0.25L1.75,1L2.5,1L2.75,2.5L1.75,2L0.5,0.75L0,0Z" style="fill:rgb(218,55,36);fill-rule:nonzero;"/>
            </g>
            <g transform="matrix(1,0,0,1,99.75,83.75)">
                <path d="M0,0L1.25,0.5L1.5,1.5L0.25,1.75L-0.25,0.25L0,0Z" style="fill:rgb(63,14,14);fill-rule:nonzero;"/>
            </g>
            <g transform="matrix(1,0,0,1,142.5,82.5)">
                <path d="M0,0L1,1L1.25,2.25L0.75,2.5L0.75,1.75L-0.5,1.5L0,0Z" style="fill:rgb(220,213,214);fill-rule:nonzero;"/>
            </g>
            <g transform="matrix(1,0,0,1,131.25,82)">
                <path d="M0,0L0.75,0.5L0.75,3L0,3.75L0,0Z" style="fill:rgb(222,223,221);fill-rule:nonzero;"/>
            </g>
            <g transform="matrix(1,0,0,1,98.5,79.5)">
                <path d="M0,0L1.25,1.25L2,2.25L-0.25,1.5L-0.25,0.25L0,0Z" style="fill:rgb(6,11,13);fill-rule:nonzero;"/>
            </g>
            <g transform="matrix(1,0,0,1,118,67.75)">
                <path d="M0,0L0.25,0L0.75,2.25L-0.25,2.75L-0.5,0.25L0,0Z" style="fill:rgb(226,226,224);fill-rule:nonzero;"/>
            </g>
            <g transform="matrix(1,0,0,1,47,103.5)">
                <path d="M0,0L0.25,0L0.25,2.25L-1,2.25L-0.75,0.75L0,0Z" style="fill:rgb(219,58,39);fill-rule:nonzero;"/>
            </g>
            <g transform="matrix(1,0,0,1,109.75,56)">
                <path d="M0,0L0.25,0.75L-0.75,3.25L-1.25,3.25L-1,1.75L-0.5,0.5L0,0Z" style="fill:rgb(245,244,244);fill-rule:nonzero;"/>
            </g>
            <g transform="matrix(1,0,0,1,193.25,151.25)">
                <path d="M0,0L3,0L2.75,0.5L-0.75,0.75L-1.5,0.75L-1.25,0.25L0,0Z" style="fill:rgb(218,55,36);fill-rule:nonzero;"/>
            </g>
            <g transform="matrix(1,0,0,1,76.5,102.5)">
                <path d="M0,0L1.25,0.25L1.25,1.25L-0.5,1.25L-0.5,0.25L0,0Z" style="fill:rgb(223,224,222);fill-rule:nonzero;"/>
            </g>
            <g transform="matrix(1,0,0,1,132.25,95)">
                <path d="M0,0L0.5,0L0.75,2.5L1.25,3.5L0.25,3L0,2.5L0,0Z" style="fill:rgb(238,236,236);fill-rule:nonzero;"/>
            </g>
            <g transform="matrix(1,0,0,1,99.25,85)">
                <path d="M0,0L0.5,0.5L1.5,0.75L1.25,1.5L0.25,1.5L0,2.5L-0.25,0.25L0,0Z" style="fill:rgb(246,245,245);fill-rule:nonzero;"/>
            </g>
            <g transform="matrix(1,0,0,1,54,181)">
                <path d="M0,0L1.75,1.5L2.5,2L2.25,2.75L0,0.75L0,0Z" style="fill:rgb(216,92,35);fill-rule:nonzero;"/>
            </g>
            <g transform="matrix(1,0,0,1,152.75,102.75)">
                <path d="M0,0L1,0.25L0.5,0.5L0.25,1.5L1.75,1.75L1.75,2L-0.25,2L-0.25,0.25L0,0Z" style="fill:rgb(16,21,33);fill-rule:nonzero;"/>
            </g>
            <g transform="matrix(1,0,0,1,80.75,94.75)">
                <path d="M0,0L1,2L0.5,2.5L-0.75,1.5L-0.25,0.25L0,0Z" style="fill:rgb(243,241,241);fill-rule:nonzero;"/>
            </g>
            <g transform="matrix(1,0,0,1,103.75,85.75)">
                <path d="M0,0L0.5,0.25L0.25,2.75L-0.25,3.75L-0.5,3L0,0Z" style="fill:rgb(245,244,244);fill-rule:nonzero;"/>
            </g>
            <g transform="matrix(1,0,0,1,129.25,66.5)">
                <path d="M0,0L1,0L0.75,1.25L0.25,2.5L-0.25,2.5L0,0Z" style="fill:rgb(243,242,242);fill-rule:nonzero;"/>
            </g>
            <g transform="matrix(1,0,0,1,83.75,91)">
                <path d="M0,0L0.75,0.25L0.25,1.25L-0.75,2L-1.25,2L-0.75,1L0,0Z" style="fill:rgb(241,239,239);fill-rule:nonzero;"/>
            </g>
            <g transform="matrix(1,0,0,1,110,60.75)">
                <path d="M0,0L1.25,0.5L3,2.5L2.75,3L1,1L0,0Z" style="fill:rgb(241,239,239);fill-rule:nonzero;"/>
            </g>
            <g transform="matrix(1,0,0,1,199.75,165.75)">
                <path d="M0,0L0.5,0L0.25,1.25L-0.25,2.5L-0.75,1.75L-0.5,0.5L0,0Z" style="fill:rgb(217,56,39);fill-rule:nonzero;"/>
            </g>
            <g transform="matrix(1,0,0,1,185,154.75)">
                <path d="M0,0L0.25,0L0.5,1.5L0,2.75L-0.75,2.75L-0.25,0.5L0,0Z" style="fill:rgb(221,62,41);fill-rule:nonzero;"/>
            </g>
            <g transform="matrix(1,0,0,1,203.75,149.5)">
                <path d="M0,0L0.75,0L0.5,2L0,2L-0.25,0.25L0,0Z" style="fill:rgb(225,72,47);fill-rule:nonzero;"/>
            </g>
            <g transform="matrix(1,0,0,1,74.25,100)">
                <path d="M0,0L0.75,0.5L-0.25,1.5L-2,1.5L-0.75,0.5L0,0Z" style="fill:rgb(225,223,222);fill-rule:nonzero;"/>
            </g>
            <g transform="matrix(1,0,0,1,91.5,84.25)">
                <path d="M0,0L0.5,0.5L0.25,2.25L-0.25,1.75L-1,2.25L-0.75,1.25L0,0Z" style="fill:rgb(232,226,227);fill-rule:nonzero;"/>
            </g>
            <g transform="matrix(1,0,0,1,137.75,82.75)">
                <path d="M0,0L0.5,0.5L0.5,1.25L-1.5,1.5L-1.5,1L-0.75,1L-0.75,0.5L0,0Z" style="fill:rgb(22,28,46);fill-rule:nonzero;"/>
            </g>
            <g transform="matrix(1,0,0,1,129.25,79.25)">
                <path d="M0,0L0.25,0L0.25,4.5L-0.25,5L-0.5,4.5L-0.5,2.5L0,0Z" style="fill:rgb(222,219,218);fill-rule:nonzero;"/>
            </g>
            <g transform="matrix(1,0,0,1,96.75,72.5)">
                <path d="M0,0L0.5,0L0,2L-0.75,2.25L-1,1L0,0Z" style="fill:rgb(232,229,229);fill-rule:nonzero;"/>
            </g>
        </g>
    </g>
    <g transform="matrix(1.14516,0,0,1.20521,-145.162,-236.35)">
        <path d="M1726.1,605.887L1726.1,1445.79C1726.1,1594.79 1598.79,1715.76 1441.97,1715.76L558.027,1715.76C401.214,1715.76 273.902,1594.79 273.902,1445.79L273.902,605.887C273.902,456.887 401.214,335.917 558.027,335.917L1441.97,335.917C1598.79,335.917 1726.1,456.887 1726.1,605.887Z" style="fill-opacity:0;stroke:rgb(209,44,24);stroke-width:6.81px;"/>
    </g>
</svg>
