<?xml version="1.0" encoding="UTF-8" standalone="no"?><!DOCTYPE svg PUBLIC "-//W3C//DTD SVG 1.1//EN" "http://www.w3.org/Graphics/SVG/1.1/DTD/svg11.dtd"><svg width="100%" height="100%" viewBox="0 0 1667 1667" version="1.1" xmlns="http://www.w3.org/2000/svg" xmlns:xlink="http://www.w3.org/1999/xlink" xml:space="preserve" xmlns:serif="http://www.serif.com/" style="fill-rule:evenodd;clip-rule:evenodd;stroke-linejoin:round;stroke-miterlimit:2;"><path d="M1562.5,468.75l0,729.167c0,201.219 -163.364,364.583 -364.583,364.583l-729.167,0c-201.219,0 -364.583,-163.364 -364.583,-364.583l-0,-729.167c-0,-201.219 163.364,-364.583 364.583,-364.583l729.167,-0c201.219,-0 364.583,163.364 364.583,364.583Z" style="fill:#fdb927;"/><clipPath id="_clip1"><path d="M1562.5,468.75l0,729.167c0,201.219 -163.364,364.583 -364.583,364.583l-729.167,0c-201.219,0 -364.583,-163.364 -364.583,-364.583l-0,-729.167c-0,-201.219 163.364,-364.583 364.583,-364.583l729.167,-0c201.219,-0 364.583,163.364 364.583,364.583Z"/></clipPath><g clip-path="url(#_clip1)"><g id="Layer_2_2_"><path d="M1303.75,390.417c-120,-128.334 -294.583,-201.667 -479.167,-201.667c-15.833,-0 -31.666,0.417 -47.083,2.083c-297.917,20 -441.667,232.084 -456.667,255.417c-22.5,27.917 -211.25,283.333 -84.583,635.833l2.5,7.5c1.25,3.75 124.583,381.25 565.417,381.25c23.333,0 47.916,-1.25 72.5,-3.333c329.583,-28.75 574.166,-272.083 595,-591.25c12.916,-183.75 -46.667,-356.25 -167.917,-485.833" style="fill:#fff;fill-rule:nonzero;"/><path d="M1272.5,419.167c-123.75,-132.084 -306.25,-200 -492.917,-187.084c-296.25,20 -427.916,240.417 -427.916,240.417c-0,-0 235,71.25 267.083,81.25c22.5,6.667 168.333,43.333 234.583,79.167c13.75,7.5 27.084,22.916 40.417,36.666c10,10.417 19.167,20.417 28.75,28.334c17.5,14.166 34.167,26.25 50.833,38.333c40.417,29.583 75.834,54.583 92.5,93.333c14.167,33.334 14.584,68.334 2.084,100.417c-11.25,27.917 -33.334,53.333 -60,70.833c2.916,-14.166 6.25,-34.583 -12.917,-47.083c-8.75,-5.417 -52.5,-15.833 -82.083,-19.167c-14.167,-1.25 -172.917,-8.75 -392.917,110c65.833,-88.333 113.333,-102.916 113.333,-102.916c-2.083,-10.417 -356.25,132.916 -356.25,132.916c0,0 122.5,392.084 595,350.417c307.917,-27.083 537.084,-252.5 557.084,-552.917c11.666,-171.25 -44.167,-332.5 -156.667,-452.916m-98.333,555c44.583,-98.334 22.5,-205 -53.334,-289.584c-20.833,-23.333 -47.083,-39.583 -72.083,-54.583c-16.25,-10 -33.333,-20.417 -48.333,-32.917c-7.084,-5.833 -12.917,-13.75 -19.167,-21.666c-7.5,-10.417 -16.25,-22.5 -28.75,-30.834c-69.583,-50.833 -152.083,-68.75 -232.917,-92.5c-38.333,-11.25 -75.416,-19.583 -110.416,-32.083c43.75,-30 99.166,-50 160,-55.417c19.166,-2.083 37.916,-2.916 57.083,-2.916c179.583,-0 335.417,90 418.75,241.666c82.917,151.25 77.917,335 -14.167,480c-94.583,148.75 -262.083,227.5 -451.666,211.667c-113.334,-9.167 -234.584,-69.167 -271.667,-133.333c22.917,-14.167 230,-123.75 372.083,-79.584c40.417,0 -24.166,98.75 -24.166,98.75c-0,0 234.583,-20.833 318.75,-206.666" style="fill:#e03a3e;fill-rule:nonzero;stroke:#000;stroke-width:4.17px;"/><path d="M823.75,676.25c-75.833,2.917 -146.25,-88.75 -204.583,-28.333c11.25,2.916 34.583,-5.834 37.916,4.583c-30,118.333 165,149.167 166.667,23.75" style="fill:#e03a3e;fill-rule:nonzero;"/></g></g><path d="M1562.5,468.75l0,729.167c0,201.219 -163.364,364.583 -364.583,364.583l-729.167,0c-201.219,0 -364.583,-163.364 -364.583,-364.583l-0,-729.167c-0,-201.219 163.364,-364.583 364.583,-364.583l729.167,-0c201.219,-0 364.583,163.364 364.583,364.583Z" style="fill:none;stroke:#c8102e;stroke-width:8.33px;stroke-linecap:round;stroke-miterlimit:1.5;"/></svg>