<?xml version="1.0" encoding="UTF-8" standalone="no"?><!DOCTYPE svg PUBLIC "-//W3C//DTD SVG 1.1//EN" "http://www.w3.org/Graphics/SVG/1.1/DTD/svg11.dtd"><svg width="100%" height="100%" viewBox="0 0 209 209" version="1.1" xmlns="http://www.w3.org/2000/svg" xmlns:xlink="http://www.w3.org/1999/xlink" xml:space="preserve" xmlns:serif="http://www.serif.com/" style="fill-rule:evenodd;clip-rule:evenodd;stroke-linecap:round;stroke-linejoin:round;stroke-miterlimit:1.5;"><g><g><g><path d="M208.333,52.083l0,104.167c0,28.746 -23.337,52.083 -52.083,52.083l-104.167,0c-28.745,0 -52.083,-23.337 -52.083,-52.083l0,-104.167c0,-28.745 23.338,-52.083 52.083,-52.083l104.167,0c28.746,0 52.083,23.338 52.083,52.083Z" style="fill:#1ca9e1;stroke:#000;stroke-width:2.08px;"/></g><rect x="-39.131" y="-49.049" width="291.667" height="291.667" style="fill:none;fill-rule:nonzero;"/></g><clipPath id="_clip1"><rect id="Asset-4-3.svg" x="5.134" y="11.119" width="187.5" height="167.104"/></clipPath><g clip-path="url(#_clip1)"><g id="Layer_2"><g id="Layer_1-2"><path d="M192.634,44.39l0,-14.259l-3.359,-3.525c-43.236,-42.594 -135.833,13.327 -167.255,40.275l-15.524,25.016l19.301,-4.958c-29.665,38.456 -19.06,63.722 -17.808,66.337c3.118,9.096 10.254,16.374 21.804,21.149c8.784,3.639 18.731,4.071 27.272,3.662c36.868,-1.774 80.455,-25.584 108.605,-50.987l0.659,-0.591l5.687,-29.2l-10.979,6.3c-22.363,10.211 -45.24,19.168 -68.531,26.834c-20.004,6.459 -29.183,7.505 -35.726,5.936l-0.857,-0.182c-1.217,-0.413 -2.084,-1.544 -2.195,-2.865c-0.308,-12.963 21.211,-40.935 32.058,-52.874c10.101,-11.234 25.977,-23.56 39.415,-29.427c9.003,-3.912 14.8,-5.481 17.567,-5.186c-1.001,3.134 -2.249,6.176 -3.733,9.097c-1.484,2.921 -10.452,21.354 -13.922,28.404c-0.045,0.098 -0.068,0.205 -0.068,0.314c-0,0.399 0.317,0.728 0.702,0.728c0.116,-0 0.23,-0.03 0.332,-0.087l66.555,-39.911Z" style="fill:#b4975a;fill-rule:nonzero;"/><path d="M107.261,42.298c-12.406,6.822 -26.613,20.467 -31.07,25.311c-36.253,40.002 -61.659,93.444 17.742,67.838c23.513,-7.732 46.603,-16.781 69.168,-27.108c-108.451,94.877 -210.82,55.148 -110.076,-44.551c-9.179,2.161 -18.423,4.23 -27.492,6.823c32.301,-27.654 120.726,-79.186 160.229,-40.252l-42.292,26.789c18.116,-36.773 -14.514,-28.131 -36.296,-14.85" style="fill:#72253d;fill-rule:nonzero;"/></g></g></g></g></svg>